<svg xmlns="http://www.w3.org/2000/svg" width="106.208" height="107" viewBox="0 0 106.208 107">
  <g id="Group_782" data-name="Group 782" transform="translate(-133.792 -90)">
    <path id="Path_437" data-name="Path 437" d="M8.287,3.134A3.615,3.615,0,0,0,5.541.147a4.484,4.484,0,0,0-3.35.4A3.916,3.916,0,0,0,.073,3.176a4.5,4.5,0,0,0,.938,3.689A3.362,3.362,0,0,0,3.616,8.013c.064,0,.128,0,.185,0a4.9,4.9,0,0,0,3.3-.963A3.629,3.629,0,0,0,8.287,3.134ZM6.92,4.007c-.149,1.729-.729,2.137-2.4,2.486a2.929,2.929,0,0,1-1.63-.169A2.118,2.118,0,0,1,1.506,4.285,2.59,2.59,0,0,1,2.171,2.3,2.853,2.853,0,0,1,4.3,1.433a2.763,2.763,0,0,1,1.992.9A2.2,2.2,0,0,1,6.92,4.007Z" transform="matrix(0.966, 0.259, -0.259, 0.966, 217.511, 98.39)" fill="#254f5b"/>
    <path id="Path_438" data-name="Path 438" d="M896.875,228.609c-.035-.454-.307-.683-.831-.7s-1.066-.07-1.649-.133a2.8,2.8,0,0,1-2.423-2.378,12.306,12.306,0,0,0-.264-1.407.654.654,0,0,0-.686-.639.673.673,0,0,0-.607.751,4.618,4.618,0,0,1-3.36,4.972c-.449.158-.652.4-.607.728.117.541.588.564,1.295.54.109,0,.216-.008.32-.008a1.828,1.828,0,0,1,.56.069c1.328.282,1.721,1.419,1.984,2.463.039.161.073.323.108.487a3.313,3.313,0,0,0,.689,1.671.906.906,0,0,0,.646.414.449.449,0,0,0,.162-.029c.254-.1.394-.427.364-.86-.2-1.326-.231-3.163.76-4.321a3.219,3.219,0,0,1,2.555-1.03C896.367,229.183,896.772,229.127,896.875,228.609Zm-4.149.536a3.539,3.539,0,0,0-1.044,1.537c-.023.069-.092.278-.25.3l-.027,0c-.125,0-.231-.124-.3-.221a4.6,4.6,0,0,0-1.386-1.249c-.131-.078-.212-.146-.219-.248a.346.346,0,0,1,.166-.26,3.806,3.806,0,0,0,1.28-1.675.285.285,0,0,1,.26-.185h.066l.052.047c.093.092.184.188.275.283a5.927,5.927,0,0,0,1.117.983.432.432,0,0,1,.231.311A.509.509,0,0,1,892.726,229.145Z" transform="translate(-752.651 -66.479)" fill="#254f5b"/>
    <g id="map" transform="translate(134.001 91)">
      <path id="Path_992" data-name="Path 992" d="M87.657,302H18.135L0,345.477H106Zm0,0" transform="translate(0 -239.477)" fill="#d9ef59"/>
      <path id="Path_993" data-name="Path 993" d="M309,345.477H256V302h34.657Zm0,0" transform="translate(-203.001 -239.477)" fill="#b1cc3e"/>
      <path id="Path_994" data-name="Path 994" d="M119.242,332H57.92L45,363.055h87.16Zm0,0" transform="translate(-35.685 -263.266)" fill="#b1cc3e"/>
      <path id="Path_995" data-name="Path 995" d="M299.477,363.055H256V332h30.557Zm0,0" transform="translate(-203.001 -263.266)" fill="#d9ef59"/>
      <path id="Path_996" data-name="Path 996" d="M148.949,0A28.169,28.169,0,0,0,121,28.156a28.822,28.822,0,0,0,4.285,15.113l23.664,37.514L172.613,43.27A28.822,28.822,0,0,0,176.9,28.156,28.169,28.169,0,0,0,148.949,0Zm0,43.891a15.736,15.736,0,1,1,15.527-15.734A15.712,15.712,0,0,1,148.949,43.891Zm0,0" transform="translate(-95.95)" fill="#fff" stroke="#447682" stroke-width="2"/>
      <path id="Path_997" data-name="Path 997" d="M159.544,315.141l6.162.77-4.657,37.266-6.162-.77Zm0,0" transform="translate(-122.821 -249.897)" fill="#d9ef59"/>
      <path id="Path_998" data-name="Path 998" d="M308.969,353.151l-4.777-37.266,6.163-.788,4.776,37.266Zm0,0" transform="translate(-241.215 -249.862)" fill="#b1cc3e"/>
      <path id="Path_999" data-name="Path 999" d="M67.5,392h77.844v6.211H67.5Zm0,0" transform="translate(-53.526 -310.844)" fill="#d9ef59"/>
      <path id="Path_1001" data-name="Path 1001" d="M256,392h38.818v6.211H256Zm0,0" transform="translate(-203.001 -310.844)" fill="#b1cc3e"/>
    </g>
  </g>
</svg>
