<svg xmlns="http://www.w3.org/2000/svg" width="11.668" height="10.69" viewBox="0 0 11.668 10.69">
  <g id="Group_179" data-name="Group 179" transform="translate(0)">
    <path id="Path_811" data-name="Path 811" d="M75.479,81.312H68.527a1.434,1.434,0,0,0-2.719,0H64.723a.456.456,0,0,0,0,.913h1.085a1.434,1.434,0,0,0,2.719,0h6.952a.456.456,0,1,0,0-.913Zm-8.311.978a.521.521,0,1,1,.521-.521A.522.522,0,0,1,67.168,82.289Z" transform="translate(-64.267 -80.334)" fill="#a8aaa5"/>
    <path id="Path_812" data-name="Path 812" d="M75.479,209.845H74.393a1.434,1.434,0,0,0-2.718,0H64.723a.456.456,0,0,0,0,.913h6.952a1.434,1.434,0,0,0,2.719,0h1.085a.456.456,0,1,0,0-.913Zm-2.444.978a.521.521,0,1,1,.521-.521A.522.522,0,0,1,73.034,210.822Z" transform="translate(-64.267 -204.956)" fill="#a8aaa5"/>
    <path id="Path_813" data-name="Path 813" d="M75.479,338.378h-5a1.434,1.434,0,0,0-2.719,0H64.723a.456.456,0,1,0,0,.913h3.041a1.434,1.434,0,0,0,2.719,0h5a.456.456,0,1,0,0-.913Zm-6.355.978a.521.521,0,1,1,.521-.521A.522.522,0,0,1,69.123,339.355Z" transform="translate(-64.267 -329.578)" fill="#a8aaa5"/>
  </g>
</svg>
