<svg xmlns="http://www.w3.org/2000/svg" width="27.918" height="32.486" viewBox="0 0 27.918 32.486">
  <g id="Group_1032" data-name="Group 1032" transform="translate(353.011 -3875.912)">
    <g id="Group_1031" data-name="Group 1031">
      <g id="leaf" transform="translate(-383.145 3865.179) rotate(11)">
        <path id="Path_911" data-name="Path 911" d="M132.478,113.28l-.409-2.046c-2.023,4.769-7.213,7.3-10.187,10.594a80.611,80.611,0,0,0-8.175,10.594h3.08C130.476,132.422,134.459,123.182,132.478,113.28Z" transform="translate(-71.692 -100.302)" fill="#d9ef59"/>
        <path id="Path_912" data-name="Path 912" d="M132.068,111.234l-.746.3c-1.838.736-3.712,1.373-5.61,1.933h0q-1.7.5-3.419.923a11.307,11.307,0,0,0-8.586,10.974v7.059S126.506,124.343,132.068,111.234Z" transform="translate(-71.691 -100.302)" fill="#d9ef59"/>
      </g>
      <g id="Group_653" data-name="Group 653" transform="translate(-15.997 -85)">
        <path id="Subtraction_3" data-name="Subtraction 3" d="M3.4,25.767v0l-.919-2.152L1.123,20.528A11.082,11.082,0,0,1,.275,13.21,11.258,11.258,0,0,1,4.049,7.033,67.174,67.174,0,0,0,10.873.589L11.41,0l1.247,1.649a21.367,21.367,0,0,1,3.41,6.391c-1.088.321-2.227.628-3.389.915a11.175,11.175,0,0,0-8.51,10.876v4.862L3.4,25.766Z" transform="translate(-336.003 3962.475)" fill="none" stroke="#2e4e5b" stroke-linecap="round" stroke-width="2"/>
        <path id="Union_11" data-name="Union 11" d="M0,21V14A11.205,11.205,0,0,1,8.51,3.127q1.7-.421,3.389-.915C13.78,1.657,15.637,1.026,17.459.3L18.2,0,18.6,2.028C20.567,11.842,16.619,21,3.052,21Z" transform="translate(-331.834 3968.303)" fill="none" stroke="#2e4e5b" stroke-width="2"/>
      </g>
    </g>
    <path id="Path_913" data-name="Path 913" d="M-347.469,3903.967a29.4,29.4,0,0,1,8.914-10.5,34.97,34.97,0,0,0,9.247-9.914" fill="none" stroke="#2e4e5b" stroke-width="2"/>
  </g>
</svg>
