<svg xmlns="http://www.w3.org/2000/svg" width="119.89" height="111.154" viewBox="0 0 119.89 111.154">
  <g id="Group_771" data-name="Group 771" transform="translate(-160.971 -331)">
    <path id="Path_918" data-name="Path 918" d="M8.7,3.29A3.8,3.8,0,0,0,5.817.155,4.707,4.707,0,0,0,2.3.57,4.111,4.111,0,0,0,.076,3.334a4.723,4.723,0,0,0,.985,3.872A3.529,3.529,0,0,0,3.8,8.412c.067,0,.135,0,.194,0A5.14,5.14,0,0,0,7.452,7.4,3.81,3.81,0,0,0,8.7,3.29Zm-1.435.916C7.108,6.021,6.5,6.449,4.747,6.816a3.075,3.075,0,0,1-1.711-.178A2.224,2.224,0,0,1,1.581,4.5a2.719,2.719,0,0,1,.7-2.082A3,3,0,0,1,4.517,1.5a2.9,2.9,0,0,1,2.091.947A2.309,2.309,0,0,1,7.264,4.206Z" transform="matrix(0.966, 0.259, -0.259, 0.966, 270.87, 347.242)" fill="#254f5b"/>
    <path id="Path_917" data-name="Path 917" d="M897.394,228.87c-.037-.476-.322-.717-.872-.735s-1.119-.074-1.732-.14a2.939,2.939,0,0,1-2.543-2.5,12.943,12.943,0,0,0-.277-1.477.686.686,0,0,0-.72-.67.706.706,0,0,0-.638.788,4.847,4.847,0,0,1-3.527,5.22c-.471.166-.685.423-.637.764.123.568.618.592,1.359.567.115,0,.227-.008.336-.008a1.919,1.919,0,0,1,.588.073c1.394.3,1.807,1.489,2.083,2.585.041.169.077.339.114.511a3.478,3.478,0,0,0,.723,1.754.951.951,0,0,0,.678.435.472.472,0,0,0,.17-.03c.267-.1.414-.448.382-.9-.209-1.392-.242-3.321.8-4.536a3.379,3.379,0,0,1,2.682-1.081C896.86,229.474,897.286,229.415,897.394,228.87Zm-4.356.563a3.715,3.715,0,0,0-1.1,1.613c-.024.072-.1.291-.263.313l-.029,0c-.131,0-.243-.13-.315-.232a4.825,4.825,0,0,0-1.455-1.312c-.137-.082-.223-.154-.23-.26a.363.363,0,0,1,.174-.273,4,4,0,0,0,1.343-1.759.3.3,0,0,1,.273-.194h.069l.055.049c.1.1.193.2.289.3a6.223,6.223,0,0,0,1.172,1.032.453.453,0,0,1,.242.326A.534.534,0,0,1,893.039,229.433Z" transform="translate(-718.121 201.256)" fill="#254f5b"/>
    <g id="Group_770" data-name="Group 770" transform="translate(162 331)">
      <path id="Path_972" data-name="Path 972" d="M122.9,293.305c-2.083,4.924-4.463,10.354-6.964,15.684H63.245c-2.5-5.329-4.881-10.759-6.964-15.684-3.484,3.2-9.6,8.064-16.437,9.1,3.5,8.184,7.741,17.541,12.086,25.805a15.7,15.7,0,0,0,13.895,8.4h47.53a15.7,15.7,0,0,0,13.895-8.4c4.345-8.264,8.586-17.622,12.086-25.805C132.5,301.369,126.384,296.506,122.9,293.305Z" transform="translate(-26.461 -225.455)" fill="#d9ef59"/>
      <path id="Intersection_1" data-name="Intersection 1" d="M0,43.3l11.331-27.62h2.4c2.5-5.33,4.881-10.76,6.963-15.683,3.484,3.2,9.6,8.064,16.437,9.1-3.5,8.184-7.741,17.542-12.086,25.806a15.7,15.7,0,0,1-13.894,8.4Z" transform="translate(75.746 67.85)" fill="#b1cc3e"/>
      <path id="Path_970" data-name="Path 970" d="M111.77,186.378a9.34,9.34,0,0,0-12.025,5.463c-.1.259-6.71,17.8-14.484,34.369H32.57C24.8,209.645,18.184,192.1,18.086,191.841A9.34,9.34,0,0,0,.6,198.4c.5,1.339,10.287,27.3,20.658,47.026a15.7,15.7,0,0,0,13.895,8.4h47.53a15.7,15.7,0,0,0,13.895-8.4c10.371-19.726,20.155-45.687,20.658-47.026a9.339,9.339,0,0,0-5.463-12.025Z" transform="translate(0 -150.051)" fill="none" stroke="#447682" stroke-width="2"/>
      <ellipse id="Ellipse_256" data-name="Ellipse 256" cx="31.828" cy="26.106" rx="31.828" ry="26.106" transform="translate(27.088 38.096)" fill="#fff" stroke="#447682" stroke-width="2"/>
      <g id="Group_769" data-name="Group 769" transform="translate(39.178 56.671)">
        <path id="Path_976" data-name="Path 976" d="M242.962,293.856c.011-3.451-2.488-3.783-5.572-3.793s-5.585.307-5.6,3.758,2.48,6.256,5.564,6.266S242.952,297.307,242.962,293.856Z" transform="translate(-217.628 -287.006)" fill="#2e4e5b"/>
        <path id="Path_977" data-name="Path 977" d="M178.557,283.537h-.006a1.726,1.726,0,0,1-1.721-1.731,1.572,1.572,0,0,0-1.566-1.576h0a1.57,1.57,0,0,0-1.57,1.565,1.726,1.726,0,0,1-1.726,1.721h-.006a1.726,1.726,0,0,1-1.721-1.731,5.022,5.022,0,0,1,5.022-5.007h.016a5.029,5.029,0,0,1,5.007,5.038A1.725,1.725,0,0,1,178.557,283.537Z" transform="translate(-170.237 -276.778)" fill="#2e4e5b"/>
        <path id="Path_978" data-name="Path 978" d="M306.6,283.939h-.006a1.726,1.726,0,0,1-1.721-1.731,1.57,1.57,0,0,0-1.565-1.576h0a1.572,1.572,0,0,0-1.57,1.566A1.726,1.726,0,0,1,300,283.918H300a1.726,1.726,0,0,1-1.721-1.732,5.029,5.029,0,0,1,5.022-5.007h.016a5.023,5.023,0,0,1,5.007,5.038A1.726,1.726,0,0,1,306.6,283.939Z" transform="translate(-268.811 -277.087)" fill="#2e4e5b"/>
      </g>
      <path id="Path_980" data-name="Path 980" d="M220.514,30.53a21.916,21.916,0,0,1,8.7,1.786,3.223,3.223,0,0,1,1.407,4.662l-8.53,13.508a1.868,1.868,0,0,1-3.158,0l-8.53-13.508a3.223,3.223,0,0,1,1.407-4.662A21.912,21.912,0,0,1,220.514,30.53Z" transform="translate(-161.599 -30.53)" fill="#d9ef59"/>
      <path id="Path_981" data-name="Path 981" d="M83.238,75.506a21.914,21.914,0,0,1,7.416-4.891,3.223,3.223,0,0,1,4.291,2.3L98.465,88.5a1.868,1.868,0,0,1-2.233,2.233l-15.583-3.52a3.223,3.223,0,0,1-2.3-4.291,21.916,21.916,0,0,1,4.89-7.416Z" transform="translate(-60.153 -61.226)" fill="#d9ef59"/>
      <path id="Path_982" data-name="Path 982" d="M360.593,75.506a21.914,21.914,0,0,0-7.416-4.891,3.223,3.223,0,0,0-4.291,2.3L345.366,88.5a1.868,1.868,0,0,0,2.233,2.233l15.583-3.52a3.223,3.223,0,0,0,2.3-4.291A21.92,21.92,0,0,0,360.593,75.506Z" transform="translate(-265.847 -61.226)" fill="#d9ef59"/>
    </g>
  </g>
</svg>
