<svg xmlns="http://www.w3.org/2000/svg" width="124.651" height="121.08" viewBox="0 0 124.651 121.08">
  <g id="Group_669" data-name="Group 669" transform="translate(-128.662 -234.329)">
    <g id="Group_664" data-name="Group 664" transform="translate(126.842 239.596)">
      <path id="Path_901" data-name="Path 901" d="M292.455,247.7l16.974,34.393a1.917,1.917,0,0,0,1.443,1.049l37.955,5.515a1.917,1.917,0,0,1,1.063,3.27L322.426,318.7a1.916,1.916,0,0,0-.551,1.7l6.484,37.8a1.917,1.917,0,0,1-2.782,2.021l-33.948-17.848a1.917,1.917,0,0,0-1.784,0L255.9,360.22a1.917,1.917,0,0,1-2.782-2.021l6.484-37.8a1.917,1.917,0,0,0-.551-1.7l-27.465-26.772a1.917,1.917,0,0,1,1.063-3.27l37.955-5.515a1.917,1.917,0,0,0,1.444-1.049L289.017,247.7A1.917,1.917,0,0,1,292.455,247.7Z" transform="translate(-224 -244.632)" fill="#d9ef59"/>
    </g>
    <g id="Group_665" data-name="Group 665" transform="translate(129.687 235.329)">
      <path id="Path_903" data-name="Path 903" d="M353.777,535.631l-.746,4.35A1.917,1.917,0,0,0,355.813,542l33.948-17.848a1.918,1.918,0,0,1,1.784,0L425.494,542a1.917,1.917,0,0,0,2.782-2.021l-6.484-37.8a1.918,1.918,0,0,1,.551-1.7l27.465-26.771a1.917,1.917,0,0,0-1.063-3.27l-12.713-1.847C415.471,505.494,383.985,524.922,353.777,535.631Z" transform="translate(-330.918 -428.414)" fill="#b1cc3e"/>
      <path id="Path_901-2" data-name="Path 901" d="M292.455,247.7l16.974,34.393a1.917,1.917,0,0,0,1.443,1.049l37.955,5.515a1.917,1.917,0,0,1,1.063,3.27L322.426,318.7a1.916,1.916,0,0,0-.551,1.7l6.484,37.8a1.917,1.917,0,0,1-2.782,2.021l-33.948-17.848a1.917,1.917,0,0,0-1.784,0L255.9,360.22a1.917,1.917,0,0,1-2.782-2.021l6.484-37.8a1.917,1.917,0,0,0-.551-1.7l-27.465-26.772a1.917,1.917,0,0,1,1.063-3.27l37.955-5.515a1.917,1.917,0,0,0,1.444-1.049L289.017,247.7A1.917,1.917,0,0,1,292.455,247.7Z" transform="translate(-231 -246.632)" fill="none" stroke="#447682" stroke-width="2"/>
    </g>
    <path id="Path_437" data-name="Path 437" d="M868.477,206.982a3.6,3.6,0,0,0-2.736-2.976,4.468,4.468,0,0,0-3.337.394,3.9,3.9,0,0,0-2.111,2.624,4.483,4.483,0,0,0,.935,3.675,3.35,3.35,0,0,0,2.6,1.144c.064,0,.128,0,.184,0a4.879,4.879,0,0,0,3.286-.96A3.616,3.616,0,0,0,868.477,206.982Zm-1.362.869c-.148,1.722-.726,2.129-2.389,2.477a2.918,2.918,0,0,1-1.624-.169,2.111,2.111,0,0,1-1.381-2.031,2.58,2.58,0,0,1,.662-1.976,2.843,2.843,0,0,1,2.124-.864,2.753,2.753,0,0,1,1.984.9A2.192,2.192,0,0,1,867.115,207.851Z" transform="matrix(0.966, 0.259, -0.259, 0.966, -553.878, -168.138)" fill="#254f5b"/>
    <path id="Path_438" data-name="Path 438" d="M896.837,228.589c-.035-.452-.306-.681-.828-.7s-1.062-.07-1.643-.133a2.79,2.79,0,0,1-2.414-2.369,12.268,12.268,0,0,0-.263-1.4.651.651,0,0,0-.683-.636.67.67,0,0,0-.605.748,4.6,4.6,0,0,1-3.347,4.954c-.447.158-.65.4-.6.725.117.539.586.562,1.29.538.109,0,.215-.008.319-.008a1.821,1.821,0,0,1,.558.069c1.323.281,1.715,1.414,1.977,2.454.039.16.073.322.108.485a3.3,3.3,0,0,0,.687,1.665.9.9,0,0,0,.643.412.448.448,0,0,0,.161-.029c.254-.1.393-.426.363-.857-.2-1.321-.23-3.152.758-4.305a3.207,3.207,0,0,1,2.546-1.026C896.33,229.162,896.734,229.106,896.837,228.589Zm-4.134.534a3.526,3.526,0,0,0-1.04,1.531c-.022.069-.092.277-.249.3l-.027,0c-.124,0-.23-.124-.3-.221a4.58,4.58,0,0,0-1.381-1.245c-.13-.077-.211-.146-.218-.247a.345.345,0,0,1,.165-.259,3.792,3.792,0,0,0,1.275-1.669.284.284,0,0,1,.259-.184h.066l.052.047c.092.092.184.187.274.282a5.9,5.9,0,0,0,1.113.98.43.43,0,0,1,.23.31A.507.507,0,0,1,892.7,229.123Z" transform="translate(-752.506 93.494)" fill="#254f5b"/>
  </g>
</svg>
