<svg xmlns="http://www.w3.org/2000/svg" width="15.496" height="17.999" viewBox="0 0 15.496 17.999">
  <g id="Group_327" data-name="Group 327" transform="translate(-21.5 -192.406)">
    <g id="pin_1_" data-name="pin (1)" transform="translate(-17.347 194.906)">
      <g id="Group_325" data-name="Group 325" transform="translate(41.347)">
        <path id="Path_842" data-name="Path 842" d="M52.44,1.9a6.5,6.5,0,1,0-9.189,9.189l4.274,4.274a.454.454,0,0,0,.642,0l4.274-4.274a6.5,6.5,0,0,0,0-9.189Z" transform="translate(-41.347)" fill="#dfe0dc"/>
      </g>
    </g>
    <g id="pin_1_2" data-name="pin (1)" transform="translate(-19.347 192.906)">
      <g id="Group_325-2" data-name="Group 325" transform="translate(41.347)">
        <path id="Path_842-2" data-name="Path 842" d="M52.44,1.9a6.5,6.5,0,1,0-9.189,9.189l4.274,4.274a.454.454,0,0,0,.642,0l4.274-4.274a6.5,6.5,0,0,0,0-9.189ZM49.886,8.538A2.886,2.886,0,1,1,50.731,6.5,2.867,2.867,0,0,1,49.886,8.538Z" transform="translate(-41.347)" fill="none" stroke="#2e4e5b" stroke-width="1"/>
      </g>
    </g>
  </g>
</svg>
