<svg xmlns="http://www.w3.org/2000/svg" width="22.557" height="24" viewBox="0 0 22.557 24">
  <defs>
    <style>
      .cls-1 {
        fill: #dfe0dc;
      }

      .cls-2 {
        fill: #2e4e5b;
      }
    </style>
  </defs>
  <g id="Group_1053" data-name="Group 1053" transform="translate(-24 -616)">
    <rect id="Rectangle_477" data-name="Rectangle 477" class="cls-1" width="16" height="22" rx="4" transform="translate(26 618)"/>
    <g id="logout" transform="translate(24 616)">
      <g id="Group_1048" data-name="Group 1048">
        <g id="Group_1047" data-name="Group 1047">
          <path id="Path_1343" data-name="Path 1343" class="cls-2" d="M15.2,8.827a.491.491,0,0,0,.49-.49V2.452A2.455,2.455,0,0,0,13.24,0H2.452A2.455,2.455,0,0,0,0,2.452V20.1a2.455,2.455,0,0,0,2.452,2.452H13.24A2.455,2.455,0,0,0,15.692,20.1V14.22a.49.49,0,1,0-.981,0V20.1a1.473,1.473,0,0,1-1.471,1.471H2.452A1.473,1.473,0,0,1,.981,20.1V2.452A1.473,1.473,0,0,1,2.452.981H13.24a1.473,1.473,0,0,1,1.471,1.471V8.336A.491.491,0,0,0,15.2,8.827Z"/>
        </g>
      </g>
      <g id="Group_1050" data-name="Group 1050" transform="translate(5.884 10.788)">
        <g id="Group_1049" data-name="Group 1049">
          <path id="Path_1344" data-name="Path 1344" class="cls-2" d="M144.182,234.667H128.49a.49.49,0,1,0,0,.981h15.692a.49.49,0,1,0,0-.981Z" transform="translate(-128 -234.667)"/>
        </g>
      </g>
      <g id="Group_1052" data-name="Group 1052" transform="translate(18.634 7.848)">
        <g id="Group_1051" data-name="Group 1051">
          <path id="Path_1345" data-name="Path 1345" class="cls-2" d="M409.107,173.79l-2.942-2.942a.49.49,0,1,0-.693.693l2.6,2.6-2.6,2.6a.491.491,0,0,0,.693.694l2.942-2.942A.491.491,0,0,0,409.107,173.79Z" transform="translate(-405.328 -170.704)"/>
        </g>
      </g>
    </g>
  </g>
</svg>
