<svg xmlns="http://www.w3.org/2000/svg" width="98" height="103" viewBox="0 0 98 103">
  <g id="Group_903" data-name="Group 903" transform="translate(-20 -464)">
    <g id="dinner_1_" data-name="dinner (1)" transform="translate(33.557 485.386)">
      <circle id="Ellipse_272" data-name="Ellipse 272" cx="20.342" cy="20.342" r="20.342" transform="translate(17.581 16.546)" fill="#447682"/>
      <path id="Path_1119" data-name="Path 1119" d="M37.923,16.546A20.289,20.289,0,0,0,22.5,23.638,20.336,20.336,0,0,1,51.388,52.129,20.337,20.337,0,0,0,37.923,16.546Z" fill="#636661"/>
      <ellipse id="Ellipse_273" data-name="Ellipse 273" cx="11.819" cy="11.777" rx="11.819" ry="11.777" transform="translate(21.232 36.924) rotate(-45)" fill="#2e4e5b"/>
      <path id="Path_1121" data-name="Path 1121" d="M11.739,34.961,11.851,56.9a2.254,2.254,0,0,1-4.508.023L7.231,34.984" fill="#2e4e5b"/>
      <path id="Path_1123" data-name="Path 1123" d="M60.668,43.871l-.147-28.7h1.867a7.4,7.4,0,0,1,7.438,7.362l.109,21.3Z" fill="#447682"/>
      <path id="Path_1125" data-name="Path 1125" d="M16.91,27.82v.08a7.456,7.456,0,0,1-7.42,7.42H9.45A7.458,7.458,0,0,1,1.99,27.9L1.94,16.52a1.225,1.225,0,0,1,1.23-1.24A1.242,1.242,0,0,1,4.4,16.51l.042,9.509A1.869,1.869,0,1,0,8.18,26l-.05-9.48a1.23,1.23,0,1,1,2.46-.01l.05,9.471a1.869,1.869,0,0,0,1.879,1.859h.062a1.869,1.869,0,0,0,1.859-1.879l-.05-9.441a1.23,1.23,0,1,1,2.46-.01Z" fill="#447682"/>
      <g id="Group_902" data-name="Group 902">
        <path id="Path_1127" data-name="Path 1127" d="M35.126,59.807a.44.44,0,0,1-.062,0,22.877,22.877,0,0,1-5.877-1.53.5.5,0,0,1,.377-.925,21.976,21.976,0,0,0,5.623,1.463.5.5,0,0,1-.061,1Z" fill="#2e4e5b"/>
        <path id="Path_1128" data-name="Path 1128" d="M27.239,57.248a.5.5,0,0,1-.233-.058q-.4-.21-.788-.434a.5.5,0,1,1,.5-.866c.249.143.5.281.756.416a.5.5,0,0,1-.234.942Z" fill="#2e4e5b"/>
        <path id="Path_1129" data-name="Path 1129" d="M49.722,18.247a.5.5,0,0,1-.275-.083A20.272,20.272,0,0,0,43.326,15.6a.5.5,0,1,1,.234-.972A21.327,21.327,0,0,1,50,17.33a.5.5,0,0,1-.277.917Z" fill="#2e4e5b"/>
        <path id="Path_1130" data-name="Path 1130" d="M51.993,19.736a.494.494,0,0,1-.312-.109q-.293-.232-.592-.458a.5.5,0,1,1,.6-.8c.208.156.415.315.617.477a.5.5,0,0,1-.312.89Z" fill="#2e4e5b"/>
      </g>
      <path id="Path_1132" data-name="Path 1132" d="M27.688,23.964a16.622,16.622,0,0,0-4.708,5.907.622.622,0,0,1-.562.356.6.6,0,0,1-.265-.058.625.625,0,0,1-.306-.827,17.9,17.9,0,0,1,5.063-6.363.612.612,0,0,1,.455-.124.619.619,0,0,1,.422.232.629.629,0,0,1-.1.877Z" fill="#fff"/>
      <path id="Path_1133" data-name="Path 1133" d="M22.194,31.592c-.116.364-.223.728-.314,1.092a.63.63,0,0,1-.612.472.956.956,0,0,1-.158-.017.626.626,0,0,1-.455-.769c.1-.4.215-.786.34-1.167a.631.631,0,0,1,1.2.389Z" fill="#fff"/>
      <path id="Path_1134" data-name="Path 1134" d="M60.668,57.356V43.871l3.631-.019v13.5a1.816,1.816,0,0,1-3.631,0Z" fill="#2e4e5b"/>
    </g>
    <path id="Rectangle_425" data-name="Rectangle 425" d="M8,0H98a0,0,0,0,1,0,0V103a0,0,0,0,1,0,0H8a8,8,0,0,1-8-8V8A8,8,0,0,1,8,0Z" transform="translate(20 464)" fill="none"/>
  </g>
</svg>
