<svg id="star" xmlns="http://www.w3.org/2000/svg" width="8.941" height="8.529" viewBox="0 0 8.941 8.529">
  <defs>
    <style>
      .cls-1 {
        fill: #636661;
      }
    </style>
  </defs>
  <g id="Group_148" data-name="Group 148">
    <path id="Path_508" data-name="Path 508" class="cls-1" d="M8.928,15.035a.262.262,0,0,0-.211-.178l-2.772-.4-1.24-2.512a.262.262,0,0,0-.47,0L3,14.454l-2.772.4a.262.262,0,0,0-.145.447l2.006,1.955-.473,2.761a.262.262,0,0,0,.38.276l2.479-1.3,2.479,1.3a.262.262,0,0,0,.38-.276l-.474-2.76L8.862,15.3A.262.262,0,0,0,8.928,15.035Z" transform="translate(0 -11.796)"/>
  </g>
</svg>
