<svg xmlns="http://www.w3.org/2000/svg" width="25.42" height="28.555" viewBox="0 0 25.42 28.555">
  <g id="Group_271" data-name="Group 271" transform="translate(-754.424 -5113.935)">
    <g id="user" transform="translate(725.77 5115)">
      <g id="Group_139" data-name="Group 139" transform="translate(37.459 0.935)">
        <g id="Group_138" data-name="Group 138" transform="translate(0 0)">
          <path id="Path_481" data-name="Path 481" d="M126.4,0a5.405,5.405,0,1,0,5.405,5.405A5.411,5.411,0,0,0,126.4,0Z" transform="translate(-120.999 1)" fill="#d9ef59"/>
        </g>
      </g>
      <g id="Group_141" data-name="Group 141" transform="translate(30.999 15.926)">
        <g id="Group_140" data-name="Group 140" transform="translate(0)">
          <path id="Path_482" data-name="Path 482" d="M53.294,306.817a10.8,10.8,0,0,0-9-4.817H40.125a10.8,10.8,0,0,0-9,4.817l-.126.188v5.458h22.42v-5.458Z" transform="translate(-30.344 -300.898)" fill="#d9ef59"/>
        </g>
      </g>
    </g>
    <g id="user-2" data-name="user" transform="translate(723.77 5113)">
      <g id="Group_139-2" data-name="Group 139" transform="translate(37.459 0.935)">
        <g id="Group_138-2" data-name="Group 138" transform="translate(0 0)">
          <path id="Path_481-2" data-name="Path 481" d="M126.4,0a5.405,5.405,0,1,0,5.405,5.405A5.411,5.411,0,0,0,126.4,0Z" transform="translate(-120.999 1)" fill="none" stroke="#2e4e5b" stroke-width="2"/>
        </g>
      </g>
      <g id="Group_141-2" data-name="Group 141" transform="translate(30.999 15.926)">
        <g id="Group_140-2" data-name="Group 140" transform="translate(0)">
          <path id="Path_482-2" data-name="Path 482" d="M53.294,306.817a10.8,10.8,0,0,0-9-4.817H40.125a10.8,10.8,0,0,0-9,4.817l-.126.188v5.458h22.42v-5.458Z" transform="translate(-30.344 -300.898)" fill="none" stroke="#2e4e5b" stroke-width="2"/>
        </g>
      </g>
    </g>
  </g>
</svg>
