<svg xmlns="http://www.w3.org/2000/svg" width="18.643" height="25.544" viewBox="0 0 18.643 25.544">
  <defs>
    <style>
      .cls-1 {
        fill: #dfe0dc;
      }

      .cls-2 {
        fill: none;
        stroke: #2e4e5b;
        stroke-linecap: round;
        stroke-linejoin: round;
      }
    </style>
  </defs>
  <g id="Group_268" data-name="Group 268" transform="translate(-23.497 -649.5)">
    <g id="Group_98" data-name="Group 98" transform="translate(3.789 4)">
      <path id="placeholder" class="cls-1" d="M21.98,2.364a8.07,8.07,0,0,0-11.413,0,9.192,9.192,0,0,0-.759,11.342l6.466,9.338,6.456-9.325A9.2,9.2,0,0,0,21.98,2.364Z" transform="translate(14.009 648)"/>
      <path id="placeholder-2" data-name="placeholder" class="cls-2" d="M21.98,2.364a8.07,8.07,0,0,0-11.413,0,9.192,9.192,0,0,0-.759,11.342l6.466,9.338,6.456-9.325A9.2,9.2,0,0,0,21.98,2.364Zm-5.632,8.578A2.946,2.946,0,1,1,19.294,8,2.95,2.95,0,0,1,16.348,10.942Z" transform="translate(12.009 646)"/>
    </g>
  </g>
</svg>
