<svg xmlns="http://www.w3.org/2000/svg" width="100.954" height="32.309" viewBox="0 0 69.954 32.309">
  <g id="Group_1128" data-name="Group 1128" transform="translate(-2.046 -4)">
    <g id="Brand_Kit_symbol_with_background" data-name="Brand Kit_symbol with background" transform="translate(2.046 4)">
      <rect id="Rectangle_193" data-name="Rectangle 193" width="33.233" height="32.309" fill="#2e4e5b" opacity="0"/>
      <path id="Path_803" data-name="Path 803" d="M85.725,75.719A12.761,12.761,0,0,1,73.162,88.434,12.408,12.408,0,0,1,60.86,75.87c0-6.887,4.791-11.02,11.678-11.02S85.725,68.833,85.725,75.719Z" transform="translate(-56.677 -60.393)" fill="#fff"/>
      <path id="Path_804" data-name="Path 804" d="M236.634,138.529a1.364,1.364,0,0,0-1.016.118,1.185,1.185,0,0,0-.642.792,1.364,1.364,0,0,0,.282,1.115,1.007,1.007,0,0,0,.78.344h.058a1.487,1.487,0,0,0,1-.29,1.24,1.24,0,0,0-.465-2.078Zm.5,1.168c-.049.573-.252.716-.8.83a.967.967,0,0,1-.542-.055.715.715,0,0,1-.471-.687.871.871,0,0,1,.223-.665.95.95,0,0,1,.709-.29h0a.925.925,0,0,1,.666.3.746.746,0,0,1,.212.563Z" transform="translate(-218.805 -128.966)" fill="#2e4e5b"/>
      <path id="Path_805" data-name="Path 805" d="M276.916,178.226a.191.191,0,0,0-.214-.183c-.115,0-.227-.013-.351-.025a.566.566,0,0,1-.494-.476,2.743,2.743,0,0,0-.06-.306.173.173,0,0,0-.184-.161.18.18,0,0,0-.161.2.955.955,0,0,1-.689,1.039c-.142.052-.161.133-.151.2.034.155.183.148.315.143a.537.537,0,0,1,.177.01c.269.055.349.275.407.5.009.034.016.069.024.1a.74.74,0,0,0,.159.374.223.223,0,0,0,.165.1.123.123,0,0,0,.047-.009.2.2,0,0,0,.1-.22,1.168,1.168,0,0,1,.148-.9.662.662,0,0,1,.52-.214c.087,0,.217-.009.244-.159v0Zm-.912.045c0,.013-.011.031-.036.053a.8.8,0,0,0-.231.344c-.012.037-.023.04-.025.041s-.014,0-.039-.033a1.024,1.024,0,0,0-.31-.275c-.02-.012-.03-.02-.03-.025s0-.01.022-.026a.854.854,0,0,0,.282-.377.021.021,0,0,1,.023-.017h0l.059.06a1.3,1.3,0,0,0,.248.214C275.992,178.245,276,178.258,276,178.27Z" transform="translate(-255.737 -164.904)" fill="#2e4e5b"/>
      <path id="Path_806" data-name="Path 806" d="M151.2,103.76a6.391,6.391,0,0,0-4.625,1.924,6.636,6.636,0,0,0-1.859,4.684c0,2.955,4.2,8.883,6,11.293a.838.838,0,0,0,1.342,0c2.737-3.658,6-8.564,6-11.169A6.885,6.885,0,0,0,151.2,103.76Zm1.179,14.123c.2-.429.639-.54,1.067-.647l.168-.043h0a.087.087,0,0,1,.069.01s0,.01-.018.03A1.609,1.609,0,0,1,152.384,117.883Zm.171-1.848a1.648,1.648,0,0,1,.93-.379c.131-.024.267-.049.4-.086A2.063,2.063,0,0,1,152.555,116.035Zm-.489-2.078a2.807,2.807,0,0,1,.836-1.074A1.216,1.216,0,0,1,152.066,113.956Zm-.916-.994a.131.131,0,0,0,.008-.021h0a2.251,2.251,0,0,1,.728-1.056,1.977,1.977,0,0,1-.682,1.09l-.018.016c-.019.019-.025.021-.033.017S151.137,112.992,151.15,112.962Zm-1.174-.664c-.019.03-.026.036-.046.028s-.021-.025-.017-.06v-.025a3.761,3.761,0,0,1,.385-1.549,1.655,1.655,0,0,1-.307,1.581A.163.163,0,0,0,149.976,112.3Zm-1.3-.509a3.783,3.783,0,0,1,.045-1.915,1.046,1.046,0,0,1,.206.644A2.139,2.139,0,0,1,148.679,111.789Zm1.063,2.7a3.739,3.739,0,0,1-1.356-.675C148.952,113.793,149.608,114.053,149.741,114.49Zm.607,1.885s-.013.008-.035.006h-.049a.825.825,0,0,1-.2-.032,3.929,3.929,0,0,1-1.245-.707,2.131,2.131,0,0,1,.761.092,1.915,1.915,0,0,1,.248.12l.116.061a.841.841,0,0,1,.313.322c.025.036.05.074.076.109C150.349,116.362,150.35,116.372,150.349,116.375Zm-.267,1.846a2.454,2.454,0,0,1-1.122-1.027l-.082-.115A2.028,2.028,0,0,1,150.082,118.221Zm1.682,3.218a.464.464,0,0,1-.211.159.2.2,0,0,1-.047-.06,2.131,2.131,0,0,1-.275-.79c-.005-.035-.011-.069-.017-.106a2.13,2.13,0,0,1-.043-.5v-.017a.13.13,0,0,1,.034-.1,4.7,4.7,0,0,0,.825-1.381c.051-.113.1-.23.157-.344a.089.089,0,0,1,.1-.059,2.006,2.006,0,0,0,1.575-.695,1.2,1.2,0,0,0,.321-.556.228.228,0,0,0-.069-.21.167.167,0,0,0-.164-.043c-.121.034-.245.065-.365.1a6.581,6.581,0,0,0-.807.237c-.575.221-.828.838-1.072,1.435a4.094,4.094,0,0,1-.511.992,8.024,8.024,0,0,1,.183-1.183.431.431,0,0,1,.089-.172c.025-.035.054-.074.085-.126a3.989,3.989,0,0,0,.206-.55c.054-.164.11-.332.163-.471.02-.043.039-.1.059-.157.069-.206.155-.458.361-.448a2.291,2.291,0,0,0,.893-.087,2.167,2.167,0,0,0,1.131-.716.36.36,0,0,0,.091-.3.218.218,0,0,0-.1-.144c-.113-.06-.286,0-.438.05a1.076,1.076,0,0,1-.231.061,2.2,2.2,0,0,0-1.87,1.139,2.369,2.369,0,0,0-.185.431c-.029.081-.058.165-.093.246v-.339a5.153,5.153,0,0,0-.157-1.6c-.021-.076,0-.107.076-.2a2.551,2.551,0,0,0,.187-.265,1.392,1.392,0,0,0,.076-.15.179.179,0,0,1,.153-.12,1.688,1.688,0,0,0,1.371-1.37,1.083,1.083,0,0,1,.023-.153c.04-.217.094-.515-.083-.584a.206.206,0,0,0-.235.074,2.854,2.854,0,0,1-.32.3,2.688,2.688,0,0,0-.333.312,5.632,5.632,0,0,0-.6.935l-.019.034c-.1.19-.222.378-.335.559l-.089.143c-.023.038-.034.04-.036.04a.142.142,0,0,1-.036-.045c-.012-.019-.023-.038-.034-.057a1.554,1.554,0,0,0-.2-.284.188.188,0,0,1-.047-.224,1.316,1.316,0,0,0,.088-.409.31.31,0,0,1,.226-.3,1.6,1.6,0,0,0,.728-.708,2.334,2.334,0,0,0,.378-1.3.214.214,0,0,0-.129-.146.172.172,0,0,0-.219.081,2.522,2.522,0,0,1-.359.377,3,3,0,0,0-.322.325,3.568,3.568,0,0,0-.655,1.781l-.018.1c-.008.042-.019.049-.022.049s-.018,0-.052-.028-.08-.069-.121-.1a1.728,1.728,0,0,1-.275-.26.832.832,0,0,1-.124-.353c-.009-.044-.017-.089-.028-.133a.357.357,0,0,1,.137-.439,1.594,1.594,0,0,0,.576-1.282,3.7,3.7,0,0,0-.182-1.208.234.234,0,0,0-.186-.133c-.069,0-.131.048-.184.137a4.5,4.5,0,0,0-.518,2.763c.014.084.029.168.045.251a.1.1,0,0,0,0,.014c.006.022,0,.023,0,.026a.049.049,0,0,1-.034-.006c-.059-.046-.12-.09-.179-.133a1.856,1.856,0,0,1-.505-.47,1.5,1.5,0,0,1-.088-.163c-.018-.036-.036-.075-.056-.111a.051.051,0,0,1,.005-.069,2.454,2.454,0,0,0,.107-2.689.418.418,0,0,0-.357-.183.2.2,0,0,0-.154.156l-.012.064a7.831,7.831,0,0,0-.184,1.455,3.66,3.66,0,0,0,.3,1.458,2.029,2.029,0,0,0,.79.87,8.079,8.079,0,0,1,1.311,1.1,1.594,1.594,0,0,1,.392.711l-.108-.085a3.138,3.138,0,0,0-.32-.231,1.339,1.339,0,0,1-.558-.619l-.015-.025a1.829,1.829,0,0,0-1.518-.767c-.173-.026-.352-.053-.52-.092a.176.176,0,0,0-.214.069.188.188,0,0,0,0,.2,2.49,2.49,0,0,0,1.168.931c.231.095.434.162.632.225a2.855,2.855,0,0,1,1.4.8.671.671,0,0,1,.235.508l0,.137c.008.2.014.412.014.639h0a5.444,5.444,0,0,1-.731-.906.19.19,0,0,1-.02-.033.141.141,0,0,0-.037-.053,1.789,1.789,0,0,0-.8-.488,2.6,2.6,0,0,0-.605-.1c-.11-.01-.223-.02-.334-.038l-.112-.015a1.542,1.542,0,0,1-.167-.025c-.119-.027-.2,0-.241.087a.238.238,0,0,0,.043.294,4.087,4.087,0,0,0,1.964,1.134.647.647,0,0,0,.232.012c.305-.058.473.227.619.481.036.061.069.118.1.168a.431.431,0,0,1,.01.327c-.008.034-.017.069-.021.106-.036.238-.083.481-.129.711-.02.1-.039.206-.059.308,0,.037-.007.049-.011.049-.044.01-.2-.2-.224-.257l-.02-.038a3.289,3.289,0,0,0-1.608-1.823,1.65,1.65,0,0,1-.234-.133c-.054-.034-.11-.069-.169-.1-.1-.051-.206-.1-.309,0a.261.261,0,0,0-.02.337,5.212,5.212,0,0,0,.889,1.224,1.856,1.856,0,0,0,1.031.555.146.146,0,0,1,.127.089,1.28,1.28,0,0,0,.4.481.185.185,0,0,1,.076.2,4.738,4.738,0,0,0,.126,1.734.947.947,0,0,0,.074.206q.012.027.023.056l.012.034c.012.036.023.069.036.1a.06.06,0,0,0,0,.014.481.481,0,0,1-.118-.111c-1.39-1.856-5.925-8.145-5.925-11.07a6.11,6.11,0,0,1,6.113-6.237,6.509,6.509,0,0,1,6.484,6.361C157.689,112.445,155.585,116.333,151.764,121.439Z" transform="translate(-134.774 -96.629)" fill="#2e4e5b"/>
    </g>
    <text id="Verdant" transform="translate(38 26)" fill="#2e4e5b" font-size="14" font-family="DINCondensed-Bold, DIN Condensed" font-weight="700"><tspan x="0" y="0">Verdant</tspan></text>
  </g>
</svg>
