<svg xmlns="http://www.w3.org/2000/svg" xmlns:xlink="http://www.w3.org/1999/xlink" width="348.5" height="370" viewBox="0 0 348.5 370">
  <defs>
    <filter id="Rectangle_72" x="25.407" y="295" width="235" height="65" filterUnits="userSpaceOnUse">
      <feOffset dy="3" input="SourceAlpha"/>
      <feGaussianBlur stdDeviation="6" result="blur"/>
      <feFlood flood-color="#447682" flood-opacity="0.439"/>
      <feComposite operator="in" in2="blur"/>
      <feComposite in="SourceGraphic"/>
    </filter>
    <filter id="Rectangle_423" x="0" y="0" width="286" height="370" filterUnits="userSpaceOnUse">
      <feOffset dy="3" input="SourceAlpha"/>
      <feGaussianBlur stdDeviation="3" result="blur-2"/>
      <feFlood flood-opacity="0.49"/>
      <feComposite operator="in" in2="blur-2"/>
      <feComposite in="SourceGraphic"/>
    </filter>
    <filter id="Rectangle_421" x="12.5" y="39.5" width="336" height="300" filterUnits="userSpaceOnUse">
      <feOffset dy="6" input="SourceAlpha"/>
      <feGaussianBlur stdDeviation="14.5" result="blur-3"/>
      <feFlood flood-opacity="0.239"/>
      <feComposite operator="in" in2="blur-3"/>
      <feComposite in="SourceGraphic"/>
    </filter>
  </defs>
  <g id="Group_1129" data-name="Group 1129" transform="translate(-18 -110)">
    <path id="Subtraction_11" data-name="Subtraction 11" d="M-14189.021-8123.41h-9.9v-313a29.726,29.726,0,0,0-29.691-29.692h-25.123v8.377a12.1,12.1,0,0,1-3.566,8.612,12.1,12.1,0,0,1-8.613,3.567h-113.436a12.1,12.1,0,0,1-8.613-3.567,12.1,12.1,0,0,1-3.566-8.612v-8.377h-25.881a29.726,29.726,0,0,0-29.692,29.692v313h-9.9v-313a39.381,39.381,0,0,1,3.113-15.409,39.464,39.464,0,0,1,8.481-12.583,39.454,39.454,0,0,1,12.587-8.485,39.327,39.327,0,0,1,15.409-3.109h188.8a39.334,39.334,0,0,1,15.409,3.109,39.426,39.426,0,0,1,12.583,8.485,39.464,39.464,0,0,1,8.485,12.583,39.345,39.345,0,0,1,3.112,15.409v313Z" transform="translate(14484 8589.41)" fill="#424441"/>
    <path id="Path_1069" data-name="Path 1069" d="M3.686-14.1v-1.16H1.656V-3.4h2.03V-8.376A3.279,3.279,0,0,0,6.339-7.1c2.059,0,3.668-1.667,3.668-4.176S8.4-15.393,6.339-15.393A3.209,3.209,0,0,0,3.686-14.1Zm4.248,2.827A2.2,2.2,0,0,1,5.8-8.883a2.169,2.169,0,0,1-2.117-2.363A2.169,2.169,0,0,1,5.8-13.61,2.145,2.145,0,0,1,7.934-11.275Zm7-2.45A1.785,1.785,0,0,1,16.851-12H13.038A1.865,1.865,0,0,1,14.937-13.726Zm3.813,3.973H16.561a1.655,1.655,0,0,1-1.609.971,1.879,1.879,0,0,1-1.928-1.856H18.9a4.745,4.745,0,0,0,.058-.783A3.771,3.771,0,0,0,15-15.393a3.86,3.86,0,0,0-4.031,4.147A3.89,3.89,0,0,0,15-7.1,3.733,3.733,0,0,0,18.751-9.753Zm3.712-1.479c0-1.551.725-2.015,1.928-2.015h.536v-2.131a2.786,2.786,0,0,0-2.465,1.363v-1.247h-2.03V-7.23h2.03ZM32.525-9.521c-.058-2.943-4.509-2.03-4.509-3.494,0-.464.391-.768,1.145-.768a1.2,1.2,0,0,1,1.348,1.044h1.943c-.116-1.595-1.29-2.653-3.233-2.653-1.986,0-3.175,1.073-3.175,2.407,0,2.943,4.538,2.03,4.538,3.465,0,.464-.435.826-1.232.826A1.333,1.333,0,0,1,27.9-9.767H25.855C25.942-8.274,27.349-7.1,29.364-7.1,31.321-7.1,32.525-8.144,32.525-9.521Zm9.424-1.725a3.969,3.969,0,0,0-4.132-4.147,3.969,3.969,0,0,0-4.132,4.147A3.932,3.932,0,0,0,37.759-7.1,4.016,4.016,0,0,0,41.949-11.246Zm-6.206,0a2.091,2.091,0,0,1,2.044-2.378,2.11,2.11,0,0,1,2.073,2.378,2.138,2.138,0,0,1-2.1,2.378C36.672-8.869,35.744-9.651,35.744-11.246ZM49.068-7.23H51.1v-4.712a3.089,3.089,0,0,0-3.2-3.436,3,3,0,0,0-2.421,1.116v-1h-2.03V-7.23h2.03v-4.437a1.744,1.744,0,0,1,1.812-1.986,1.738,1.738,0,0,1,1.783,1.986ZM52.5-11.275c0,2.508,1.624,4.176,3.654,4.176a3.168,3.168,0,0,0,2.668-1.3V-7.23h2.044v-8.033H58.826v1.145a3.177,3.177,0,0,0-2.653-1.276C54.129-15.393,52.5-13.784,52.5-11.275Zm6.322.029a2.163,2.163,0,0,1-2.131,2.363,2.2,2.2,0,0,1-2.117-2.392,2.142,2.142,0,0,1,2.117-2.334A2.163,2.163,0,0,1,58.826-11.246ZM62.857-7.23h2.03V-17.96h-2.03Zm6.728-4A3.824,3.824,0,0,0,73.354-7.1a3.263,3.263,0,0,0,2.958-1.624V-7.23h1.334V-17.96H76.312v4.2a3.465,3.465,0,0,0-2.943-1.551A3.768,3.768,0,0,0,69.585-11.232Zm6.728.014a2.719,2.719,0,0,1-2.7,2.958,2.721,2.721,0,0,1-2.682-2.972,2.683,2.683,0,0,1,2.682-2.929A2.722,2.722,0,0,1,76.312-11.217Zm6.945-2.972a2.331,2.331,0,0,1,2.508,2.407H80.749A2.461,2.461,0,0,1,83.257-14.19ZM86.969-9.68H85.548a2.184,2.184,0,0,1-2.233,1.464,2.5,2.5,0,0,1-2.581-2.494h6.351a7.152,7.152,0,0,0,.044-.8,3.642,3.642,0,0,0-3.813-3.8,3.781,3.781,0,0,0-3.929,4.089A3.827,3.827,0,0,0,83.315-7.1,3.573,3.573,0,0,0,86.969-9.68Zm2.189.275c0,1.595.8,2.175,2.2,2.175h1.189V-8.347H91.58c-.812,0-1.1-.275-1.1-1.058v-4.683h2.073v-1.087H90.478v-2H89.159v2H88.129v1.087h1.029Zm4.495-1.827A3.821,3.821,0,0,0,97.409-7.1a3.318,3.318,0,0,0,2.972-1.609V-7.23h1.334v-7.946h-1.334v1.45a3.3,3.3,0,0,0-2.958-1.58A3.765,3.765,0,0,0,93.653-11.232Zm6.728.014a2.719,2.719,0,0,1-2.7,2.958A2.721,2.721,0,0,1,95-11.232a2.683,2.683,0,0,1,2.682-2.929A2.722,2.722,0,0,1,100.381-11.217Zm3.567,3.987h1.319v-7.946h-1.319Zm.681-9.236a.879.879,0,0,0,.87-.9.879.879,0,0,0-.87-.9.885.885,0,0,0-.9.9A.885.885,0,0,0,104.629-16.466Zm2.885,9.236h1.319V-17.96h-1.319Zm9.279-2.16c-.058-2.842-4.669-1.812-4.669-3.7,0-.638.58-1.1,1.551-1.1a1.528,1.528,0,0,1,1.725,1.377h1.319c-.087-1.551-1.247-2.494-3-2.494s-2.914,1-2.914,2.218c0,2.958,4.7,1.928,4.7,3.7,0,.652-.58,1.174-1.624,1.174-1.116,0-1.8-.58-1.87-1.348h-1.363c.087,1.45,1.392,2.465,3.248,2.465C115.649-7.1,116.794-8.086,116.794-9.391Z" transform="translate(60.042 180)" fill="#858783"/>
    <g id="Group_891" data-name="Group 891" transform="translate(-846 -8719)">
      <path id="Path_1075" data-name="Path 1075" d="M2.3-8.515v-2.194H3.52c.86,0,1.247.406,1.247,1.1,0,.677-.387,1.092-1.247,1.092ZM5.9-9.607c0-1.092-.783-2-2.378-2H1.2V-4.89H2.3V-7.616H3.52C5.269-7.616,5.9-8.65,5.9-9.607ZM6.951-4.89h1.1v-7.153h-1.1ZM9.136-7.577A2.575,2.575,0,0,0,11.63-4.8a2.292,2.292,0,0,0,1.866-.88v.793h1.112v-5.326H13.5v.773a2.267,2.267,0,0,0-1.846-.86A2.535,2.535,0,0,0,9.136-7.577Zm4.359.019a1.655,1.655,0,0,1-1.614,1.8,1.678,1.678,0,0,1-1.614-1.817,1.634,1.634,0,0,1,1.614-1.769A1.652,1.652,0,0,1,13.5-7.558ZM20.03-6.378c-.058-1.924-3.064-1.324-3.064-2.4,0-.358.309-.6.9-.6a.881.881,0,0,1,1,.783h1.1A1.826,1.826,0,0,0,17.9-10.3c-1.257,0-2.049.686-2.049,1.537,0,1.953,3.093,1.353,3.093,2.4,0,.367-.338.638-.976.638a.972.972,0,0,1-1.063-.793H15.767A2.009,2.009,0,0,0,17.99-4.8C19.247-4.8,20.03-5.479,20.03-6.378Zm1.363.01c0,1.083.59,1.479,1.537,1.479h.87v-.918h-.677c-.464,0-.619-.164-.619-.561V-9.317h1.3v-.9H22.5V-11.54H21.393v1.324h-.628v.9h.628ZM24.814-4.89h1.1v-5.326h-1.1Zm.561-6.032a.7.7,0,0,0,.7-.706.7.7,0,0,0-.7-.706.7.7,0,0,0-.706.706A.7.7,0,0,0,25.375-10.921ZM27-7.558A2.547,2.547,0,0,0,29.609-4.8a2.392,2.392,0,0,0,2.455-1.769H30.875a1.216,1.216,0,0,1-1.266.841c-.889,0-1.479-.657-1.479-1.827s.59-1.817,1.479-1.817a1.245,1.245,0,0,1,1.266.841h1.189A2.317,2.317,0,0,0,29.609-10.3,2.544,2.544,0,0,0,27-7.558Zm13.5-2.658H39.4v2.967a1.291,1.291,0,0,1-1.344,1.479c-.8,0-1.334-.5-1.334-1.479v-2.967H35.631v3.132a2.081,2.081,0,0,0,2.194,2.272A1.983,1.983,0,0,0,39.4-5.528v.638h1.1ZM45.732-4.89h1.092V-8.031A2.074,2.074,0,0,0,44.64-10.3a2.049,2.049,0,0,0-1.585.7v-.609h-1.1V-4.89h1.1V-7.867A1.291,1.291,0,0,1,44.4-9.346c.8,0,1.334.5,1.334,1.479Zm2.629,0h1.112V-9.317h.986v-.9h-.986v-.377c0-.609.232-.841.909-.841v-.918c-1.392,0-2.02.532-2.02,1.759v.377h-.628v.9h.628Zm4.176-2.8c0-1.131.5-1.469,1.315-1.469h.28V-10.3a1.735,1.735,0,0,0-1.595.86v-.773h-1.1V-4.89h1.1Zm2.61,2.8h1.1v-5.326h-1.1Zm.561-6.032a.7.7,0,0,0,.7-.706.7.7,0,0,0-.7-.706.7.7,0,0,0-.706.706A.7.7,0,0,0,55.707-10.921Zm4.234,1.547A1.383,1.383,0,0,1,61.43-8.031H58.481A1.451,1.451,0,0,1,59.941-9.375Zm2.494,2.9H61.246a1.289,1.289,0,0,1-1.257.744,1.465,1.465,0,0,1-1.518-1.411h4.069a3.4,3.4,0,0,0,.039-.541,2.484,2.484,0,0,0-2.591-2.62,2.55,2.55,0,0,0-2.658,2.745A2.584,2.584,0,0,0,59.989-4.8,2.434,2.434,0,0,0,62.435-6.475ZM67.442-4.89h1.092V-8.031A2.074,2.074,0,0,0,66.35-10.3a2.049,2.049,0,0,0-1.585.7v-.609h-1.1V-4.89h1.1V-7.867a1.291,1.291,0,0,1,1.344-1.479c.8,0,1.334.5,1.334,1.479Zm2.127-2.687A2.578,2.578,0,0,0,72.082-4.8a2.208,2.208,0,0,0,1.846-.889v.8h1.112v-7.153H73.928v2.571a2.453,2.453,0,0,0-1.837-.831A2.537,2.537,0,0,0,69.568-7.577Zm4.359.019a1.655,1.655,0,0,1-1.614,1.8A1.678,1.678,0,0,1,70.7-7.577a1.634,1.634,0,0,1,1.614-1.769A1.652,1.652,0,0,1,73.928-7.558ZM76.489-4.89h1.1v-7.153h-1.1Zm4.649-1.266-1.5-4.06H78.413l2.1,5.239L79.428-2.386h1.141l3.267-7.83H82.7Z" transform="translate(955.733 9158.287)" fill="#636661"/>
      <g id="Group_546" data-name="Group 546" transform="translate(907.302 9138.852)">
        <g transform="matrix(1, 0, 0, 1, -43.3, -309.85)" filter="url(#Rectangle_72)">
          <rect id="Rectangle_72-2" data-name="Rectangle 72" width="199" height="29" rx="4" transform="translate(43.41 310)" fill="#447682"/>
        </g>
        <text id="NEXT" transform="translate(165.96 17.458)" fill="#fff" font-size="9" font-family="Poppins-Medium, Poppins" font-weight="500" letter-spacing="0.012em"><tspan x="-11.273" y="0">NEXT</tspan></text>
        <text id="_3_selected" data-name="3 selected" transform="translate(10.105 17.148)" fill="#fff" font-size="8" font-family="Poppins-Light, Poppins" font-weight="300"><tspan x="0" y="0">3 selected</tspan></text>
      </g>
    </g>
    <g transform="matrix(1, 0, 0, 1, 18, 110)" filter="url(#Rectangle_423)">
      <path id="Rectangle_423-2" data-name="Rectangle 423" d="M38,0H230a38,38,0,0,1,38,38V352a0,0,0,0,1,0,0H0a0,0,0,0,1,0,0V38A38,38,0,0,1,38,0Z" transform="translate(9 6)" fill="#2e4e5b" opacity="0.34"/>
    </g>
    <g transform="matrix(1, 0, 0, 1, 18, 110)" filter="url(#Rectangle_421)">
      <rect id="Rectangle_421-2" data-name="Rectangle 421" width="249" height="213" rx="10" transform="translate(56 77)" fill="#fff"/>
    </g>
    <g id="Group_887" data-name="Group 887" transform="translate(95 195)">
      <g id="Group_662" data-name="Group 662" transform="translate(160.641 105.447)">
        <path id="Path_817" data-name="Path 817" d="M94.966,68.334c0,12.838-10.576,23.689-23.408,23.689A23.116,23.116,0,0,1,48.64,68.613c0-12.831,8.923-20.533,21.755-20.533S94.966,55.5,94.966,68.334Z" transform="translate(-48.64 -48.08)" fill="#e3e3e3" opacity="0.28"/>
        <g id="Group_214" data-name="Group 214" transform="translate(7.205 9.137)">
          <g id="Group_41" data-name="Group 41" transform="translate(0 0)">
            <path id="Path_434" data-name="Path 434" d="M781.652,222.046s5.067,2.313,7.016,4.443l.044.051a7.894,7.894,0,0,0-4.238-6.832c-4.97-2.541-11.577,1.926-11.577,1.926,6.03,9.979,12.275,8.2,14.719,6.949C786.392,226.941,783.561,223.3,781.652,222.046Z" transform="translate(-772.897 -216.263)" fill="#d9ef59"/>
            <path id="Path_435" data-name="Path 435" d="M895.692,246.773s-3.585,2.3-4.828,4.131c-.01.015-.019.029-.028.044a6.041,6.041,0,0,1,2.464-5.638c3.487-2.468,8.979.195,8.979.195-3.477,8.217-8.4,7.554-10.39,6.871C892.636,251,894.383,247.931,895.692,246.773Z" transform="translate(-869.968 -237.121)" fill="#d9ef59"/>
            <path id="Path_436" data-name="Path 436" d="M797.052,228.188a3.265,3.265,0,0,0,1.438-.178,7.908,7.908,0,0,0,2.352-1.338.941.941,0,0,0,.092-.087l.03-.031a14.338,14.338,0,0,0,1.406-1.628,25.157,25.157,0,0,1,2.088-2.532,4.265,4.265,0,0,1,1.895-1.15.449.449,0,0,0,.347-.36c.033-.148-.049-.229-.185-.347l-.014-.012a6.526,6.526,0,0,0-1.413-.885,8.53,8.53,0,0,0-5.15-.827A7.536,7.536,0,0,0,797.02,220a6.451,6.451,0,0,0-2.9,3.716,2.518,2.518,0,0,0-.036,1.581.207.207,0,0,0,.137.152.2.2,0,0,0,.185-.09c.035-.043.069-.088.1-.132.048-.064.1-.127.148-.186a11.947,11.947,0,0,1,3.838-2.747.244.244,0,0,1,.07-.019l.309-.066-.576.566-.85.837a10.866,10.866,0,0,0-2.216,2.882c-.2.413-.411.823-.619,1.233-.195.385-.39.77-.581,1.157l-.074.15a13.9,13.9,0,0,0-1.17,2.893c0,.136-.057.165-.107.168l-.058,0-.02-.058c-1.89-5.623-4.333-9.752-7.69-13l-.31-.3.389.163a1.085,1.085,0,0,1,.177.1,26.1,26.1,0,0,1,4,3.338,2.585,2.585,0,0,1,.644.88.127.127,0,0,0,.068.075.165.165,0,0,0,.131-.007.437.437,0,0,0,.25-.235l.056-.169a3.526,3.526,0,0,0,.254-1.232,6.518,6.518,0,0,0-.521-2.456,7.586,7.586,0,0,0-2.695-3.237,7.8,7.8,0,0,0-4.345-1.546l-.206,0a11.946,11.946,0,0,0-3.432.51c-.455.136-.914.285-1.359.428-.683.221-1.39.449-2.1.638l-.237.062a6.071,6.071,0,0,0-1.154.384.283.283,0,0,0-.191.3.318.318,0,0,0,.236.3,4.9,4.9,0,0,1,1.848,1.151,12.7,12.7,0,0,1,1.346,1.661c.094.131.189.262.284.392.257.35.507.713.748,1.065.387.563.787,1.145,1.223,1.681a6.921,6.921,0,0,0,2.956,2.182,8.2,8.2,0,0,0,2.606.463,1.951,1.951,0,0,1,1.56.776,13.323,13.323,0,0,1,1.315,1.923,25.249,25.249,0,0,1,2.459,6.795,9.721,9.721,0,0,1,.272,1.967c0,.232.061.309.258.33.543.058,1.1.108,1.7.154a.268.268,0,0,0,.222-.076.286.286,0,0,0,.062-.228,5.573,5.573,0,0,1,.159-1.821,21.059,21.059,0,0,1,3.128-7.1A.324.324,0,0,1,797.052,228.188Zm-.614-.186a21.834,21.834,0,0,0-1.775,3.113,18.882,18.882,0,0,0-1.545,4.538,6.272,6.272,0,0,0-.128,1.248.24.24,0,0,1-.052.183.174.174,0,0,1-.128.045l-.042,0c-.324-.031-.654-.05-.965-.067-.12-.007-.174-.061-.188-.186a23.829,23.829,0,0,0-1.789-6.659,14.143,14.143,0,0,0-2.189-3.822l-.12-.142a6.871,6.871,0,0,0-.655-.707.957.957,0,0,0-.514-.211c-.341-.059-.693-.1-1.033-.14a9.249,9.249,0,0,1-2.181-.436,6.563,6.563,0,0,1-2.862-2.148c-.43-.545-.831-1.126-1.218-1.689-.273-.4-.555-.805-.844-1.2l-.243-.334a11.5,11.5,0,0,0-1.147-1.417,5.148,5.148,0,0,0-1.431-1.066l-.029-.013a.3.3,0,0,1-.174-.145l-.048-.094.1-.024c.956-.233,1.908-.534,2.829-.826.528-.167,1.075-.34,1.615-.5a10.97,10.97,0,0,1,3.265-.44,7.5,7.5,0,0,1,4.513,1.713,6.991,6.991,0,0,1,2.232,2.847,6.684,6.684,0,0,1,.489,2.09,2.5,2.5,0,0,1-.153,1.065l-.049.14-.084-.119a6.442,6.442,0,0,0-.667-.773,22.573,22.573,0,0,0-4.183-3.422,11.062,11.062,0,0,0-1.709-.818c-.243-.1-.485-.2-.725-.305-.155-.069-.315-.129-.466-.185a.2.2,0,0,0-.271.1.217.217,0,0,0,.085.3c.107.073.224.138.337.2.067.037.134.074.2.114a15.861,15.861,0,0,1,4.3,3.938,29.945,29.945,0,0,1,4.171,7.158l.182.435a20.607,20.607,0,0,1,1.076,2.992c.022.087.04.175.059.264.022.105.044.21.072.313.064.239.111.271.381.265.146,0,.216-.043.268-.282a12.744,12.744,0,0,1,.894-2.743c.187-.4.393-.791.592-1.172.256-.489.52-1,.745-1.51a10.879,10.879,0,0,1,2.4-3.434l.168-.165c.435-.428.884-.871,1.338-1.295a7.9,7.9,0,0,1,1.462-1.069c.256-.152.2-.291.177-.337a.242.242,0,0,0-.322-.107,15.878,15.878,0,0,0-2.846,1.177,11.25,11.25,0,0,0-3.006,2.285c-.014.016-.03.031-.051.05l-.142.137-.024-.146a1.167,1.167,0,0,1,.058-.543,5.928,5.928,0,0,1,1.589-2.693,7.348,7.348,0,0,1,7.13-1.933,8.881,8.881,0,0,1,2.693,1.174c.041.026.081.056.124.089l.178.132-.336.156c-.148.068-.29.134-.431.2a5.278,5.278,0,0,0-1.594,1.3c-.724.815-1.4,1.694-2.015,2.521a7.588,7.588,0,0,1-1.241,1.356,6.529,6.529,0,0,1-2.768,1.438,1.155,1.155,0,0,1-.234.017h-.05l-.313,0c-.166,0-.331,0-.5.005C796.579,227.806,796.521,227.88,796.438,228Z" transform="translate(-774.083 -212.549)" fill="#254f5b"/>
            <path id="Path_437" data-name="Path 437" d="M862.191,204.6a.86.86,0,0,0-.653-.711,1.067,1.067,0,0,0-.8.094.931.931,0,0,0-.5.626,1.069,1.069,0,0,0,.223.878.8.8,0,0,0,.62.273h.044a1.164,1.164,0,0,0,.784-.229A.862.862,0,0,0,862.191,204.6Zm-.325.207c-.036.411-.174.508-.57.591a.7.7,0,0,1-.388-.04.5.5,0,0,1-.33-.485.616.616,0,0,1,.158-.472.679.679,0,0,1,.507-.206.658.658,0,0,1,.474.215A.525.525,0,0,1,861.866,204.812Z" transform="translate(-844.786 -203.859)" fill="#254f5b"/>
            <path id="Path_438" data-name="Path 438" d="M889.075,224.677c-.009-.115-.078-.172-.21-.177s-.269-.018-.416-.034a.707.707,0,0,1-.611-.6,3.1,3.1,0,0,0-.067-.355.165.165,0,0,0-.173-.161.17.17,0,0,0-.153.189,1.166,1.166,0,0,1-.848,1.255c-.113.04-.165.1-.153.184.03.136.148.142.327.136l.081,0a.463.463,0,0,1,.141.017c.335.071.435.358.5.621.01.041.019.082.027.123a.837.837,0,0,0,.174.422.229.229,0,0,0,.163.1.116.116,0,0,0,.041-.007c.064-.025.1-.108.092-.217a1.4,1.4,0,0,1,.192-1.09.812.812,0,0,1,.645-.26C888.947,224.822,889.049,224.808,889.075,224.677Zm-1.047.135a.894.894,0,0,0-.263.388c-.006.017-.023.07-.063.075h-.007c-.031,0-.058-.031-.076-.056a1.163,1.163,0,0,0-.35-.315c-.033-.02-.054-.037-.055-.063a.087.087,0,0,1,.042-.065.963.963,0,0,0,.323-.423.072.072,0,0,1,.066-.047h.017l.013.012.069.071a1.5,1.5,0,0,0,.282.248.109.109,0,0,1,.058.078A.129.129,0,0,1,888.028,224.813Z" transform="translate(-866.373 -219.905)" fill="#254f5b"/>
          </g>
        </g>
      </g>
      <g id="Group_614" data-name="Group 614" transform="translate(80.566 105.447)">
        <path id="Path_896" data-name="Path 896" d="M95.294,68.477c0,12.929-10.65,23.856-23.574,23.856A23.28,23.28,0,0,1,48.64,68.758c0-12.922,8.986-20.678,21.909-20.678S95.294,55.555,95.294,68.477Z" transform="translate(-48.64 -48.08)" fill="#e3e3e3" opacity="0.28"/>
        <g id="Group_609" data-name="Group 609" transform="translate(8.163 6.481)">
          <g id="Group_45" data-name="Group 45" transform="translate(0 0)">
            <path id="Path_444" data-name="Path 444" d="M1121.953,270.921s-3.509,7.824-2.039,9.768,7.35,3.035,9.152,2.561a9.218,9.218,0,0,0,2.371-.848s3.794-5.551,3.8-11.054C1135.233,271.348,1123.614,272.913,1121.953,270.921Z" transform="translate(-1107.302 -255.339)" fill="#d9ef59"/>
            <g id="Group_44" data-name="Group 44" transform="translate(2.692 0)">
              <path id="Path_445" data-name="Path 445" d="M1090.151,225.98a.318.318,0,0,0-.386.08,1.1,1.1,0,0,0-.16.271q-.469,1.065-.934,2.132l-.159.365c-.179.409-.179.409-.577.246-.06-.024-.12-.045-.181-.066l-1.373-.49c-1.008-.361-2.016-.721-3.026-1.074-1.947-.681-3.539-1.23-5.013-1.727-.255-.086-.512-.186-.76-.282a9.578,9.578,0,0,0-1.486-.485c-.094-.019-.118-.04-.124-.05s.009-.1.022-.143c.331-1.077.731-2.151,1.119-3.189.4-1.063.806-2.161,1.142-3.266a.824.824,0,0,0-.094-.766,12.766,12.766,0,0,1-2.355-7.4h0a11.77,11.77,0,0,1,1-4.869A9.7,9.7,0,0,1,1089.782,200a11.989,11.989,0,0,1,6.99,8.684c.061.251.105.512.149.764a6.1,6.1,0,0,0,.389,1.489c.121.27.231.55.339.822.05.127.1.255.152.381.042.1.171.42.49.3.289-.108.2-.347.146-.5l-.014-.039c-.083-.238-.178-.477-.269-.707a6.575,6.575,0,0,1-.566-2.061,6.948,6.948,0,0,0-.427-1.785l-.006-.018a12.854,12.854,0,0,0-6.451-7.7,10.4,10.4,0,0,0-12.981,2.772,12.363,12.363,0,0,0-2.34,10.529,13.2,13.2,0,0,0,2.107,4.926l.015.022c.056.081.09.129.058.23-.331,1.041-.708,2.086-1.072,3.1-.432,1.2-.879,2.437-1.252,3.68a.534.534,0,0,0,.008.441.509.509,0,0,0,.368.205,6.01,6.01,0,0,1,1.1.314c1.127.448,2.291.851,3.417,1.241.7.243,1.425.493,2.132.752.674.247,1.364.481,2.032.707,1.308.443,2.659.9,3.943,1.474a.593.593,0,0,0,.241.055.445.445,0,0,0,.173-.034.492.492,0,0,0,.268-.292c.246-.634.527-1.267.8-1.878.177-.4.361-.811.534-1.221a1.452,1.452,0,0,0,.1-.326A.307.307,0,0,0,1090.151,225.98Z" transform="translate(-1075.086 -198.45)" fill="#254f5b"/>
              <path id="Path_446" data-name="Path 446" d="M1116.345,249.25a.375.375,0,0,0-.286-.126,2.662,2.662,0,0,0-.638.048,11.414,11.414,0,0,1-1.689.242l-1.7.08q-2.377.111-4.754.229a1.091,1.091,0,0,1-.728-.211c-.425-.3-.832-.637-1.225-.964-.316-.263-.642-.535-.978-.785-.185-.138-.379-.269-.567-.4a9.535,9.535,0,0,1-.826-.6c-.371-.314-.722-.663-1.061-1a15.74,15.74,0,0,0-1.228-1.14,1.114,1.114,0,0,0-.859-.307c-.149.018-.3.037-.444.063a2.369,2.369,0,0,0-2.035,1.923c-.016.072-.031.144-.045.216-.019.1-.039.2-.066.3a3.134,3.134,0,0,0,2.4,3.523,2.084,2.084,0,0,0,1.848-.608c.255-.289.127-.486.028-.577a.336.336,0,0,0-.241-.1.494.494,0,0,0-.32.2,1.372,1.372,0,0,1-1.185.383,1.888,1.888,0,0,1-1.336-.886q-.076-.092-.155-.182a2.084,2.084,0,0,1-.352-1.57,2.32,2.32,0,0,1,.66-1.516,1.879,1.879,0,0,1,1.458-.452c.32.059.465.406.606.74l.035.083a1.2,1.2,0,0,1,.066.3c.02.145.051.411.365.4.242-.009.282-.187.291-.328a20.323,20.323,0,0,0,2.681,2.246,24.345,24.345,0,0,1,2.143,1.723,13.594,13.594,0,0,0-2.885,8.58,10.831,10.831,0,0,1-1.633-1.925,22.866,22.866,0,0,1-1.594-3.143l-.042-.093a12.724,12.724,0,0,1-.72-2.021.448.448,0,0,0-.187-.3.33.33,0,0,0-.259-.026.376.376,0,0,0-.243.492,1.016,1.016,0,0,0,.035.131c.01.033.02.066.027.1a9.339,9.339,0,0,0,.688,1.9l.062.139a16.009,16.009,0,0,0,2.536,4.345,8.28,8.28,0,0,0,3.838,2.571,15.244,15.244,0,0,0,4.333.63q.378,0,.757-.019a2.5,2.5,0,0,0,2.514-1.379,14.665,14.665,0,0,0,2.053-4.471,16.745,16.745,0,0,0,.806-4.438c0-.107,0-.214,0-.321a8.344,8.344,0,0,1,.1-1.466A.293.293,0,0,0,1116.345,249.25Zm-.71.781a19.325,19.325,0,0,1-2.067,8.62,7.422,7.422,0,0,1-1.2,1.8.68.68,0,0,1-.387.217,6.678,6.678,0,0,1-1.712.214,14.643,14.643,0,0,1-5.091-.876,3.616,3.616,0,0,1-.8-.405,1,1,0,0,1-.317-.844,11,11,0,0,1,.971-5.041c.089-.205.181-.409.272-.613.129-.287.262-.583.385-.879a5.34,5.34,0,0,1,1.232-1.689.464.464,0,0,1,.359-.1h.013c.037,0,.074,0,.11,0q1.811-.091,3.622-.173,1.417-.066,2.835-.134a9.03,9.03,0,0,0,1.6-.232c.032-.007.128-.029.154-.008C1115.614,249.89,1115.635,249.918,1115.635,250.031Z" transform="translate(-1092.401 -234.45)" fill="#254f5b"/>
            </g>
            <path id="Path_447" data-name="Path 447" d="M1194.871,242.69a1.046,1.046,0,0,0-.795-.865,1.3,1.3,0,0,0-.969.115,1.133,1.133,0,0,0-.613.762,1.3,1.3,0,0,0,.271,1.068.973.973,0,0,0,.754.332h.053a1.415,1.415,0,0,0,.954-.279A1.05,1.05,0,0,0,1194.871,242.69Zm-.4.252c-.043.5-.211.618-.693.719a.848.848,0,0,1-.472-.049.614.614,0,0,1-.4-.59.753.753,0,0,1,.192-.574.828.828,0,0,1,.617-.251.8.8,0,0,1,.577.261A.637.637,0,0,1,1194.475,242.942Z" transform="translate(-1164.541 -232.466)" fill="#2e4e5b"/>
            <path id="Path_448" data-name="Path 448" d="M1065.769,282.146c-.011-.139-.094-.21-.255-.215s-.327-.021-.507-.041a.859.859,0,0,1-.743-.73,3.881,3.881,0,0,0-.081-.432.2.2,0,0,0-.211-.2.207.207,0,0,0-.186.23,1.615,1.615,0,0,1-.369,1.125,1.6,1.6,0,0,1-.662.4c-.138.049-.2.124-.186.223.036.166.181.173.4.166l.1,0a.56.56,0,0,1,.172.022c.408.086.529.435.609.756.013.049.023.1.033.149a1.019,1.019,0,0,0,.212.513.28.28,0,0,0,.2.127.137.137,0,0,0,.05-.009c.078-.03.122-.131.112-.264a1.712,1.712,0,0,1,.233-1.327.989.989,0,0,1,.784-.316C1065.613,282.322,1065.738,282.3,1065.769,282.146Zm-1.274.164a1.085,1.085,0,0,0-.321.472c-.007.021-.028.085-.076.092h-.009c-.038,0-.071-.038-.093-.068a1.407,1.407,0,0,0-.425-.384c-.041-.024-.065-.045-.068-.076a.107.107,0,0,1,.051-.08,1.172,1.172,0,0,0,.393-.514.086.086,0,0,1,.079-.057h.021l.016.014c.029.028.056.058.084.087a1.816,1.816,0,0,0,.343.3.134.134,0,0,1,.071.1A.157.157,0,0,1,1064.5,282.31Z" transform="translate(-1062.566 -262.883)" fill="#2e4e5b"/>
          </g>
        </g>
      </g>
      <g id="Group_466" data-name="Group 466" transform="translate(159.913 12)">
        <path id="Path_471" data-name="Path 471" d="M96.207,68.876c0,13.182-10.859,24.323-24.036,24.323A23.736,23.736,0,0,1,48.64,69.163c0-13.175,9.162-21.083,22.338-21.083S96.207,55.7,96.207,68.876Z" transform="translate(-48.64 -48.08)" fill="#e3e3e3" opacity="0.28"/>
        <g id="Group_215" data-name="Group 215" transform="translate(8.323 6.608)">
          <g id="Group_40" data-name="Group 40" transform="translate(0 0)">
            <path id="Path_430" data-name="Path 430" d="M551.622,255.041,575.747,244.7a.181.181,0,0,1,.239.106l.9,2.255a.205.205,0,0,1-.1.264l-23.759,10.266a.179.179,0,0,1-.227-.079l-1.263-2.184A.206.206,0,0,1,551.622,255.041Z" transform="translate(-548.217 -234.649)" fill="#d9ef59"/>
            <path id="Path_431" data-name="Path 431" d="M566.041,221.473l.078-.1a8.7,8.7,0,0,0,.81-1.262c.113-.2.227-.4.347-.6a14.248,14.248,0,0,0,2.061-8.089,21.2,21.2,0,0,0-.214-2.374,12.4,12.4,0,0,0-1.765-4.926,23.138,23.138,0,0,0-1.74-2.364,9.109,9.109,0,0,0-1.927-1.741.663.663,0,0,1-.338-.615c-.009-.42-.041-.833-.085-1.323-.047-.521-.17-.643-.694-.689-.58-.05-1.266-.108-1.952-.152a1.218,1.218,0,0,0-.769.125.522.522,0,0,1-.507.052,18.356,18.356,0,0,0-5.282-.9,10.913,10.913,0,0,0-4.909.823l-.1.044a1.676,1.676,0,0,1-1.228.21.289.289,0,0,0-.09,0l-.07,0c-.329,0-.658,0-.987,0-.532-.007-1.081-.014-1.62.014-.208.011-.29.092-.3.3-.032.474-.1.95-.158,1.411-.024.181-.049.362-.071.543a.637.637,0,0,1-.187.4,19.486,19.486,0,0,0-1.378,1.529,18.319,18.319,0,0,0-2.115,3.482A15.7,15.7,0,0,0,539.313,214a10.549,10.549,0,0,0,.985,3.225,14.686,14.686,0,0,0,2.757,4.441.462.462,0,0,1,.109.4c-.04.467-.076.92-.111,1.373a.716.716,0,0,0,.34.7c.142.094.283.191.423.287.245.168.5.342.753.5.094.057.187.117.28.177a2.023,2.023,0,0,0,1.937.464l.045-.018.046.016a2.023,2.023,0,0,0,.392.076,1.734,1.734,0,0,1,.679.191,12.278,12.278,0,0,0,7.891,1.62,9.887,9.887,0,0,0,4.054-1.262.479.479,0,0,1,.324-.051,3.609,3.609,0,0,0,2.333-.63,5.841,5.841,0,0,0,1.408-1.381l.084-.1a3.694,3.694,0,0,0,.758-1.41l.008-.038a.274.274,0,0,1,.184-.246A2.208,2.208,0,0,0,566.041,221.473Zm-6.118-16.756c.114-.89.177-1.8.237-2.68.027-.4.055-.792.086-1.187a12.044,12.044,0,0,0,.013-2.716.271.271,0,0,1,.053-.228.3.3,0,0,1,.252-.069l.625.044c.415.03.829.059,1.243.085a.273.273,0,0,1,.265.315v.036l.042.84c.041.8.083,1.634.108,2.453l0,.081c.023.725.047,1.474.109,2.208a9,9,0,0,1,0,1.141c-.012.289-.025.588-.014.88a.291.291,0,0,1-.194.294l-3.052,1.34.017-.221c.021-.286.039-.565.055-.841C559.813,205.88,559.849,205.3,559.924,204.717Zm-10.931-6.674.065.116h0l-.058-.12a9.215,9.215,0,0,1,3.684-.925,19.787,19.787,0,0,1,6.631.811.493.493,0,0,1,.407.48c.025.467.017.94.01,1.4l-.005.317a.291.291,0,0,1-.117.261.184.184,0,0,1-.089.023.371.371,0,0,1-.191-.074.293.293,0,0,0-.033-.02,14.262,14.262,0,0,0-3.354-.992,12.691,12.691,0,0,0-5.4.309c-.381.1-.759.216-1.131.328l-.5.149-.171.05v-.615c0-.391,0-.776,0-1.162A.352.352,0,0,1,548.993,198.043Zm.105,2.613a13.687,13.687,0,0,1,7.78-.575,18.289,18.289,0,0,1,2.361.752.535.535,0,0,1,.374.6c-.039.993-.141,2-.239,2.965s-.2,1.986-.239,2.982a.372.372,0,0,1-.4.423c-.607,0-1.205.039-1.84.075-.769.044-1.563.086-2.424.084-.225.022-.456.031-.692.031-.575,0-1.182-.055-1.813-.113-.535-.049-1.089-.1-1.638-.115a2.74,2.74,0,0,0-.288.013,1.018,1.018,0,0,1-.7-.1.9.9,0,0,1-.229-.613,2.077,2.077,0,0,0-.057-.319,7.067,7.067,0,0,1-.3-2.227c.017-.585-.02-1.182-.055-1.758-.029-.473-.059-.962-.06-1.446A.612.612,0,0,1,549.1,200.655Zm-4.587,6.847c.056-.957.112-1.914.161-2.871.09-1.722.21-3.573.478-5.439.039-.271.065-.533.078-.779.011-.221.121-.311.339-.32.757.02,1.514.037,2.272.046a.324.324,0,0,1,.244.087.369.369,0,0,1,.074.283c-.01.262-.022.524-.035.787-.032.672-.065,1.366-.048,2.045.01.38.015.76.02,1.141a28.732,28.732,0,0,0,.2,3.552,7.488,7.488,0,0,0,.188.851c.04.154.081.308.116.463a2.02,2.02,0,0,1,.043.362c.019.459.188.625.647.631l.446,0a15.863,15.863,0,0,1,1.811.081,30.29,30.29,0,0,0,4.852.066l.18-.007c.066,0,.131,0,.2,0h.672l-.528.254c-4.4,2.111-8.38,4-12.55,5.792l-.2.084.022-.484c.01-.195.02-.389.025-.585C544.277,211.528,544.4,209.482,544.512,207.5Zm13.931,18.714a13.021,13.021,0,0,1-4.232.727,12.6,12.6,0,0,1-5.089-1.1l-.445-.195.482-.06a29.645,29.645,0,0,1,6.439.137c.92.087,1.872.177,2.808.226l.689.036Zm5.738-3.553a2.25,2.25,0,0,1-.479.863c-.1.119-.205.242-.306.364a4.938,4.938,0,0,1-1.075,1.062,3.409,3.409,0,0,1-1.909.6,3.561,3.561,0,0,1-.458-.03c-1.443-.189-2.858-.32-4.2-.39-.909-.048-1.83-.135-2.72-.219l-.2-.019a17.45,17.45,0,0,0-2.835.04c-.352.024-.693.05-1.035.077-.4.031-.79.061-1.186.087a4.317,4.317,0,0,1-.672-.019,2.59,2.59,0,0,0-.695,0,1.408,1.408,0,0,1-.945-.273c-.365-.22-.725-.46-1.072-.693-.2-.132-.4-.265-.6-.394a.365.365,0,0,1-.153-.383l0-.04c.045-.748.135-1.5.222-2.231q.044-.37.087-.741c.016-.141.034-.281.051-.421a8.831,8.831,0,0,0,.1-1.508.53.53,0,0,1,.355-.553c1.49-.7,3.021-1.381,4.5-2.038.989-.439,1.978-.877,2.963-1.325,2.172-.989,4.42-1.9,6.594-2.771q1.085-.438,2.169-.879c.615-.252,1.235-.527,1.834-.793q.405-.18.812-.359c.191-.083.294-.128.395-.071s.114.163.139.358c.2,1.532.31,2.785.36,3.948.023.519.063,1.047.1,1.558.063.819.128,1.665.121,2.5v.206h0l.008.133c0,.258,0,.516,0,.775,0,.593-.006,1.206.007,1.807A5.89,5.89,0,0,1,564.182,222.663Zm.75-7.084c-.065-.886-.132-1.8-.181-2.7-.041-.736-.156-1.477-.266-2.194-.057-.372-.115-.743-.163-1.117a.4.4,0,0,1,.259-.483c.334-.15.667-.3,1-.467a.249.249,0,0,1,.4.182,10.052,10.052,0,0,1,.275,1.614,13.642,13.642,0,0,1-.86,6.246,1.054,1.054,0,0,1-.052.114l-.069.142-.246-.053-.007-.1Q564.975,216.169,564.931,215.579Zm.306,6.018-.219.185v-3.121a.577.577,0,0,1,.113-.315l.023-.037a12.254,12.254,0,0,0,1.7-7.118,10.162,10.162,0,0,0-.452-2.7c-.015-.044-.029-.087-.045-.13-.094-.259-.184-.4-.293-.445a.716.716,0,0,0-.526.082c-.212.087-.438.191-.712.327-2.087,1.033-4.274,1.921-6.39,2.78q-.948.385-1.9.774c-3.566,1.474-8.249,3.465-12.848,5.793-.115.058-.25.134-.269.2s.059.213.129.333a.484.484,0,0,1,.052.3l0,.048a14.187,14.187,0,0,1-.178,1.618c-.031.213-.064.43-.094.655l-.045.337-.2-.278c-.135-.192-.271-.374-.4-.552a11.927,11.927,0,0,1-.782-1.146,21.893,21.893,0,0,1-1.64-3.6,9.6,9.6,0,0,1-.444-3.606,14.824,14.824,0,0,1,1.219-5.757,22.169,22.169,0,0,1,2.272-4.015,9.848,9.848,0,0,1,.725-.846l.048-.051.07.011a.183.183,0,0,1,.158.224l-.07.9q-.051.645-.1,1.29a.549.549,0,0,1-.126.336,11.273,11.273,0,0,0-2.286,5.02,15.594,15.594,0,0,0-.356,2.449,8.427,8.427,0,0,0,.853,4.057,1.171,1.171,0,0,0,.229.3l.041.044a.22.22,0,0,0,.3.045,38.656,38.656,0,0,1,4.7-2.19l.087-.036c.89-.367,1.771-.8,2.623-1.209.734-.357,1.493-.726,2.257-1.056,1.047-.452,2.1-.951,3.109-1.433.606-.289,1.211-.577,1.82-.858,1.289-.593,2.611-1.167,3.89-1.721.657-.285,1.315-.57,1.971-.859.5-.219.995-.455,1.461-.677a.635.635,0,0,0,.375-.384.622.622,0,0,0-.132-.509l-.146-.211a8.644,8.644,0,0,0-.745-.976c-.021-.023-.043-.048-.064-.073-.046-.055-.1-.123-.144-.135-.371-.1-.378-.4-.382-.614-.008-.375-.02-.735-.031-1.1q-.013-.41-.025-.82l0-.049a.527.527,0,0,1,.053-.32l.075-.14.125.1a10.4,10.4,0,0,1,1.556,1.486,26.219,26.219,0,0,1,1.574,2.137,11.26,11.26,0,0,1,1.691,4.533,16.791,16.791,0,0,1,.091,5.447,12.83,12.83,0,0,1-1.573,4.518c-.14.241-.269.488-.4.736a8.759,8.759,0,0,1-.881,1.458l-.083.107A2.647,2.647,0,0,1,565.237,221.6ZM543.446,215a.979.979,0,0,1-.685.351l-.1.014-.039-.1a8.305,8.305,0,0,1-.625-2.4,14.06,14.06,0,0,1,.886-5.67,6.582,6.582,0,0,1,.863-1.755l.052-.073.087.021a.188.188,0,0,1,.145.24q-.187,3.63-.374,7.241l-.064,1.235a.275.275,0,0,0,0,.046A1.088,1.088,0,0,1,543.446,215Zm20.111-10.2c.006-.111.013-.224.017-.341l.01-.309.218.219a4.867,4.867,0,0,1,.515.637l.116.162a.214.214,0,0,1,.046.187.232.232,0,0,1-.151.143c-.149.067-.284.126-.43.191l-.316.139-.022-.179A4.684,4.684,0,0,1,563.557,204.795Z" transform="translate(-538.504 -196.51)" fill="#254f5b"/>
            <path id="Path_432" data-name="Path 432" d="M672.29,198.355a1.014,1.014,0,0,0-.77-.838,1.26,1.26,0,0,0-.94.111,1.1,1.1,0,0,0-.595.739,1.263,1.263,0,0,0,.263,1.035.943.943,0,0,0,.731.322h.051a1.373,1.373,0,0,0,.925-.27A1.017,1.017,0,0,0,672.29,198.355Zm-.384.244c-.042.485-.2.6-.672.7a.824.824,0,0,1-.457-.047.6.6,0,0,1-.389-.572.727.727,0,0,1,.186-.556.8.8,0,0,1,.6-.243.775.775,0,0,1,.559.253A.615.615,0,0,1,671.907,198.6Z" transform="translate(-641.993 -197.274)" fill="#2e4e5b"/>
            <path id="Path_433" data-name="Path 433" d="M538.836,310.722c-.01-.135-.091-.2-.247-.208s-.317-.021-.491-.04a.833.833,0,0,1-.721-.707,3.622,3.622,0,0,0-.079-.419.194.194,0,0,0-.2-.19.2.2,0,0,0-.181.223,1.373,1.373,0,0,1-1,1.48c-.134.047-.194.12-.181.216.035.161.175.168.385.161l.1,0a.542.542,0,0,1,.167.021c.395.084.512.422.59.733.012.048.022.1.032.145a.985.985,0,0,0,.205.5.27.27,0,0,0,.192.123.133.133,0,0,0,.048-.009c.076-.029.117-.127.108-.256a1.657,1.657,0,0,1,.227-1.286.957.957,0,0,1,.76-.306C538.684,310.893,538.805,310.876,538.836,310.722Zm-1.235.159a1.052,1.052,0,0,0-.311.457c-.007.02-.027.082-.074.089h-.008c-.037,0-.069-.037-.09-.066a1.363,1.363,0,0,0-.412-.372c-.039-.023-.063-.044-.065-.074a.1.1,0,0,1,.049-.077,1.131,1.131,0,0,0,.381-.5.085.085,0,0,1,.078-.055h.019l.016.014.082.084a1.748,1.748,0,0,0,.332.293.128.128,0,0,1,.069.092A.152.152,0,0,1,537.6,310.881Z" transform="translate(-535.731 -285.684)" fill="#2e4e5b"/>
          </g>
        </g>
      </g>
      <g id="Group_114" data-name="Group 114" transform="translate(1.947 12)">
        <path id="Path_474" data-name="Path 474" d="M95.9,68.74c0,13.1-10.788,24.164-23.878,24.164A23.58,23.58,0,0,1,48.64,69.025c0-13.089,9.1-20.945,22.192-20.945S95.9,55.651,95.9,68.74Z" transform="translate(-48.64 -48.08)" fill="#e3e3e3" opacity="0.28"/>
        <g id="Group_43" data-name="Group 43" transform="translate(6.997 6.586)">
          <path id="Path_439" data-name="Path 439" d="M1118.927,455.139s5.712,5.644-1.439,11.379c-3.731,2.991-7.863-.837-7.863-.837S1106.934,459.99,1118.927,455.139Z" transform="translate(-1095.818 -453.379)" fill="#d9ef59"/>
          <g id="Group_42" data-name="Group 42" transform="translate(0 0.979)">
            <path id="Path_440" data-name="Path 440" d="M1067.121,489.877c-.1-.211-.225-.413-.342-.616a1.693,1.693,0,0,1-.236-.632c-.082-.673-.174-1.346-.225-2.022-.065-.866-.091-1.735-.137-2.6a1.92,1.92,0,0,1,.21-1.053,1.225,1.225,0,0,0,.078-.995,19.367,19.367,0,0,1-.621-5.428c0-.8.019-1.611.03-2.416a7.062,7.062,0,0,0-1.222-3.953,3.094,3.094,0,0,0-.914-1.052,5.155,5.155,0,0,0-3.637-.623c-.19.034-.377.1-.329.339s.243.207.414.169a4.607,4.607,0,0,1,1.781.006,3.068,3.068,0,0,1,2.262,1.384,12.131,12.131,0,0,1,.663,1.363,8.216,8.216,0,0,1,.465,3.817,27.609,27.609,0,0,0,.108,3.74,13.911,13.911,0,0,0,.5,2.8.631.631,0,0,1,0,.524,2.327,2.327,0,0,0-.3,1.278c.072,1.065.041,2.136.2,3.2a5.1,5.1,0,0,0,.8,2.855,9.042,9.042,0,0,1-2.34.058,3.27,3.27,0,0,0,.629-.718.425.425,0,0,0,.114-.374c-.146-.6-.111-1.223-.266-1.821a4.811,4.811,0,0,1-.123-.858,3.659,3.659,0,0,0-.234-1.3c-.2-.443-.424-.879-.67-1.3-.443-.756-.9-1.505-1.341-2.261-.106-.182-.146-.453-.433-.4-.311.057-.245.349-.262.557-.067.812-.141,1.624-.161,2.437a9.089,9.089,0,0,1-.848,3.4,5.186,5.186,0,0,0-.418,2.8c.016.121-.01.164-.141.146a4.561,4.561,0,0,0-.759.005,8.191,8.191,0,0,1-1.435-.092c.243-.265.362-.56.576-.8a2.377,2.377,0,0,0,.624-1.068c.25-1.214.578-2.41.849-3.619a2.084,2.084,0,0,0-.2-1.673,2.039,2.039,0,0,1-.256-.824c-.1-.653-.145-1.311-.271-1.962a1.809,1.809,0,0,0-2.392-1.488,28.235,28.235,0,0,0-4.3,1.779,12.453,12.453,0,0,0-2.1,1.334,2.163,2.163,0,0,0-.936,2.218c.195,1.012.362,2.03.528,3.048.163,1,.387,1.988.587,2.98.032.158.044.287-.18.29-.507,0-1.013.012-1.52.028-.2.006-.237-.051-.152-.229.132-.277.238-.567.376-.841a1.553,1.553,0,0,0,.117-1.056,17.283,17.283,0,0,0-.89-2.529c-.07-.184-.166-.364-.4-.347s-.265.209-.328.383c-.275.753-.329,1.557-.548,2.32a4.7,4.7,0,0,0-.187,2.246c.02.1-.016.13-.108.133a18.043,18.043,0,0,0-2.1.161c.165-.186.307-.362.465-.521a3.127,3.127,0,0,0,1.019-2.429,13.9,13.9,0,0,1-.037-3.054.818.818,0,0,0-1.085-.833c-.305.122-.631.158-.937.266a.728.728,0,0,1-.552-.033,5.146,5.146,0,0,0-.535-.193.866.866,0,0,0-1.149.613c-.082.268-.155.539-.213.813a6.576,6.576,0,0,1-1.1,2.544,1.6,1.6,0,0,1-.877.685,3.033,3.033,0,0,0-1.023.545,5.508,5.508,0,0,1-1.233.829.675.675,0,0,1-.984-.589c-.017-.4-.012-.8,0-1.193a4.465,4.465,0,0,0-.12-1.877,1.113,1.113,0,0,1,.034-.693,1.466,1.466,0,0,0-.117-1.157,1.4,1.4,0,0,1-.186-1.066,1.538,1.538,0,0,0-.514-1.64c-.035-.03-.1-.06-.074-.115a.816.816,0,0,1,.97-.035,1.253,1.253,0,0,0,.683.146,1.822,1.822,0,0,0,1.287-.722,8.222,8.222,0,0,0,1.21-1.732c.555-1.066,1.123-2.127,1.663-3.2a12.516,12.516,0,0,1,1.632-2.523c.287-.338.581-.672.891-.988a6.185,6.185,0,0,1,2.769-1.829c.162-.044.3-.119.252-.316s-.21-.189-.374-.151a4.469,4.469,0,0,0-1.5.672,10.645,10.645,0,0,0-1.925,1.7,12.536,12.536,0,0,0-1.857,2.533c-.61,1.15-1.207,2.308-1.8,3.466a8.541,8.541,0,0,1-1.354,2.024c-.562.593-.912.7-1.548.36a.86.86,0,0,0-.681-.112c-.307.1-.612.222-.908.356-.315.143-.322.376-.033.563a1.313,1.313,0,0,1,.691,1.55,1.57,1.57,0,0,0,.212,1.227,1,1,0,0,1,.111.834,2.091,2.091,0,0,0,.028,1.255,1.439,1.439,0,0,1,.1.638,14.88,14.88,0,0,0-.058,2.112,1.1,1.1,0,0,0,.6.936.9.9,0,0,0,.8.154,3.78,3.78,0,0,0,1.185-.642,3.636,3.636,0,0,1,1.5-.889,1.026,1.026,0,0,0,.463-.272,5.714,5.714,0,0,0,1.505-2.6c.109-.373.195-.753.292-1.13.173-.671.332-.747.972-.467.025.011.048.026.072.037a1.205,1.205,0,0,0,.923.065c.307-.107.634-.141.94-.263.239-.1.425.059.427.322a2.134,2.134,0,0,1-.028.351,3.98,3.98,0,0,0-.065,1.026c.043.441.063.885.1,1.327a3.67,3.67,0,0,1,.032.675,3.029,3.029,0,0,1-1.1,1.966,2.721,2.721,0,0,0-.5.571.478.478,0,0,0,0,.515c.082.147.238.09.371.076.116-.013.235-.014.35-.033.771-.127,1.554-.076,2.328-.155.318-.032.393-.124.334-.444a4.1,4.1,0,0,1,.124-2.166,4.737,4.737,0,0,0,.21-1.008,2.69,2.69,0,0,1,.264-.971c.179.457.357.872.505,1.3a1.962,1.962,0,0,1-.057,1.845,1.7,1.7,0,0,0-.318.911.44.44,0,0,0,.454.5,16.812,16.812,0,0,0,2.166-.081c.347-.053.451-.212.381-.546-.418-1.992-.729-4-1.127-6a1.857,1.857,0,0,1,.637-1.988c.388-.31.811-.576,1.218-.862a.3.3,0,0,1,.225-.037c.655.074,1.311.142,1.969.188.2.014.314.018.315.265,0,.17-.023.442.259.419s.222-.28.2-.471c-.014-.145.012-.224.178-.217a1.081,1.081,0,0,0,.241-.036c.108-.021.167,0,.173.131a6.461,6.461,0,0,1,.05.812c-.013.174,0,.351.234.344s.241-.179.236-.354a5.75,5.75,0,0,0-.057-.839c-.053-.3.216-.229.362-.274.193-.061.1.113.115.184.031.162.073.318.277.3.189-.018.209-.171.2-.327a.832.832,0,0,0,0-.135c-.036-.166.042-.238.194-.292a4.448,4.448,0,0,0,1.056-.551c.18-.126.37-.238.57-.365.087.461.154.888.2,1.321a4.015,4.015,0,0,0,.4,1.732,1.66,1.66,0,0,1,.161,1.3c-.249,1.093-.551,2.174-.747,3.278a2.454,2.454,0,0,1-.485,1.1c-.233.3-.471.6-.691.9-.3.423-.123.785.4.853a9.6,9.6,0,0,0,1.03.055c.416.009.833-.046,1.248,0,.328.04.5-.1.509-.428,0-.126-.022-.252-.027-.379a4.243,4.243,0,0,1,.3-2.094,12.37,12.37,0,0,0,.866-2.534,12.785,12.785,0,0,0,.2-1.86c.039-.463.061-.927.094-1.449.2.267.27.534.425.755a14.651,14.651,0,0,1,1.268,2.238,1.57,1.57,0,0,1,.193.59c.04,1.051.3,2.072.406,3.114a.556.556,0,0,1-.079.357,3.59,3.59,0,0,1-.647.728.378.378,0,0,0-.134.389.388.388,0,0,0,.343.269,1.443,1.443,0,0,0,.243.022c.616,0,1.232.007,1.848,0a2.572,2.572,0,0,0,.826-.141C1067.188,490.28,1067.249,490.138,1067.121,489.877Zm-8.777-9.981a6.617,6.617,0,0,1-4.011,1.282,12.153,12.153,0,0,1-1.475-.138,18.429,18.429,0,0,1,3.507-1.535c.318-.089.618-.253.95-.311a1.189,1.189,0,0,1,1.066.332C1058.54,479.675,1058.516,479.77,1058.344,479.9Z" transform="translate(-1034.706 -465.204)" fill="#254f5b"/>
            <path id="Path_441" data-name="Path 441" d="M1107.573,453.551a5.539,5.539,0,0,0-1.035-2.51c-.209-.28-.416-.274-.584.024a1.037,1.037,0,0,1-.226.267,5.37,5.37,0,0,1-1.647.974c-1.3.516-2.643.875-3.958,1.329a5.365,5.365,0,0,0-1.618.745,5.662,5.662,0,0,0-1.609,1.952,4.523,4.523,0,0,0-.357,2.987.314.314,0,0,0,.562.174,7.186,7.186,0,0,1,2.117-1.349,6.216,6.216,0,0,1,1.7-.5l-1.012.514a10.711,10.711,0,0,0-4.443,3.838,7.068,7.068,0,0,0-.954,2.057.406.406,0,0,0,.24.513c.081.04.159.087.239.128.447.23.6.156.753-.319a8.919,8.919,0,0,1,1.229-2.437c.108-.151.175-.206.342-.044a3.8,3.8,0,0,0,1.232.779,5.294,5.294,0,0,0,4.632-.355A8.7,8.7,0,0,0,1107.573,453.551Zm-4.436,8.183a4.767,4.767,0,0,1-4.011.595,3.483,3.483,0,0,1-1.736-1.1c-.143-.174-.335-.158-.534.048a6.714,6.714,0,0,0-1.013,1.5c-.218.4-.368.844-.552,1.267-.027.061.006.186-.132.146s-.13-.125-.091-.235a8.808,8.808,0,0,1,.86-1.717,10.15,10.15,0,0,1,4.042-3.527,16.07,16.07,0,0,1,3.041-1.287,1.526,1.526,0,0,0,.2-.077.263.263,0,0,0,.175-.3.251.251,0,0,0-.249-.211,5.368,5.368,0,0,0-1.46.06,10.814,10.814,0,0,0-3.447,1.178,13.829,13.829,0,0,0-1.236.858,4.317,4.317,0,0,1,1.431-3.792,4.39,4.39,0,0,1,1.709-.958c1.314-.458,2.663-.808,3.956-1.335a6.14,6.14,0,0,0,2.007-1.206c.123-.118.168-.094.248.039a5.392,5.392,0,0,1,.8,2.84A8.071,8.071,0,0,1,1103.137,461.734Z" transform="translate(-1083.643 -450.836)" fill="#254f5b"/>
          </g>
          <path id="Path_442" data-name="Path 442" d="M1179.834,446.209a.883.883,0,0,0-.671-.73,1.1,1.1,0,0,0-.818.1.957.957,0,0,0-.518.643,1.1,1.1,0,0,0,.229.9.822.822,0,0,0,.637.28h.045a1.2,1.2,0,0,0,.805-.235A.886.886,0,0,0,1179.834,446.209Zm-.334.213c-.036.422-.178.522-.586.607a.716.716,0,0,1-.4-.041.517.517,0,0,1-.338-.5.634.634,0,0,1,.162-.484.7.7,0,0,1,.522-.212.674.674,0,0,1,.486.22A.538.538,0,0,1,1179.5,446.422Z" transform="translate(-1151.84 -445.443)" fill="#2e4e5b"/>
          <path id="Path_443" data-name="Path 443" d="M1048.37,497.19c-.009-.118-.079-.177-.215-.181s-.276-.018-.428-.035a.725.725,0,0,1-.628-.616,3.2,3.2,0,0,0-.068-.365.169.169,0,0,0-.178-.165.174.174,0,0,0-.157.195,1.2,1.2,0,0,1-.87,1.288c-.117.041-.169.1-.158.188.03.14.152.146.336.14l.083,0a.469.469,0,0,1,.145.018c.344.073.446.368.514.638.01.042.019.084.028.126a.865.865,0,0,0,.179.433.236.236,0,0,0,.167.107.115.115,0,0,0,.042-.007c.066-.025.1-.111.094-.223a1.441,1.441,0,0,1,.2-1.12.833.833,0,0,1,.662-.267C1048.238,497.339,1048.343,497.324,1048.37,497.19Zm-1.075.139a.916.916,0,0,0-.271.4c-.006.018-.024.072-.064.077h-.008c-.032,0-.06-.032-.078-.057a1.18,1.18,0,0,0-.359-.324c-.034-.02-.055-.038-.056-.064a.09.09,0,0,1,.042-.067.984.984,0,0,0,.332-.434.073.073,0,0,1,.067-.048h.017l.014.012.072.073a1.531,1.531,0,0,0,.289.255.112.112,0,0,1,.06.08A.132.132,0,0,1,1047.295,497.329Z" transform="translate(-1043.678 -486.684)" fill="#2e4e5b"/>
        </g>
      </g>
      <path id="Path_1084" data-name="Path 1084" d="M-30.542-4.144c0-2.254-3.285-1.275-3.285-2.848,0-.655.515-1,1.171-.978a1.1,1.1,0,0,1,1.179.882h.874a1.821,1.821,0,0,0-2.018-1.564c-1.205,0-2.018.681-2.018,1.686,0,2.262,3.293,1.214,3.293,2.856,0,.577-.454,1.013-1.223,1.013a1.128,1.128,0,0,1-1.258-1.013h-.847c.017,1,.882,1.686,2.105,1.686A1.824,1.824,0,0,0-30.542-4.144Zm5.416-3.127h-.795v2.629c0,1.031-.55,1.537-1.371,1.537a1.284,1.284,0,0,1-1.337-1.468v-2.7h-.786v2.8A1.867,1.867,0,0,0-27.45-2.414a1.76,1.76,0,0,0,1.529-.777v.708h.795Zm4.787,3.485c-.035-1.712-2.813-1.092-2.813-2.228,0-.384.349-.664.935-.664a.921.921,0,0,1,1.04.83h.795a1.606,1.606,0,0,0-1.808-1.5c-1.066,0-1.756.6-1.756,1.337,0,1.782,2.83,1.162,2.83,2.228,0,.393-.349.708-.978.708-.673,0-1.083-.349-1.127-.812h-.821c.052.874.839,1.485,1.957,1.485C-21.029-2.406-20.339-3-20.339-3.786Zm1.293-.009c0,.961.48,1.31,1.328,1.31H-17v-.673h-.585c-.489,0-.664-.166-.664-.638V-6.616H-17v-.655h-1.249V-8.477h-.795v1.205h-.62v.655h.62Zm2.708-1.1a2.3,2.3,0,0,0,2.262,2.49,2,2,0,0,0,1.791-.97v.891h.8V-7.271h-.8V-6.4a1.987,1.987,0,0,0-1.782-.952A2.269,2.269,0,0,0-16.338-4.9Zm4.053.009A1.638,1.638,0,0,1-13.91-3.1,1.639,1.639,0,0,1-15.526-4.9,1.616,1.616,0,0,1-13.91-6.66,1.64,1.64,0,0,1-12.285-4.887Zm2.149,2.4h.795V-7.271h-.795Zm.411-5.564A.53.53,0,0,0-9.2-8.59a.53.53,0,0,0-.524-.542.533.533,0,0,0-.542.542A.533.533,0,0,0-9.726-8.049Zm5.241,5.564H-3.7V-5.306A1.857,1.857,0,0,0-5.655-7.359a1.768,1.768,0,0,0-1.537.769v-.681h-.795v4.787h.795V-5.131c0-1.031.559-1.537,1.371-1.537s1.337.5,1.337,1.476ZM-2.693-4.9A2.3,2.3,0,0,0-.431-2.406a2,2,0,0,0,1.791-.97v.891h.8V-7.271h-.8V-6.4A1.987,1.987,0,0,0-.422-7.35,2.269,2.269,0,0,0-2.693-4.9Zm4.053.009A1.638,1.638,0,0,1-.265-3.1,1.639,1.639,0,0,1-1.881-4.9,1.616,1.616,0,0,1-.265-6.66,1.64,1.64,0,0,1,1.36-4.887ZM4.3-6.38V-8.949H3.509v6.464H4.3v-.882a2,2,0,0,0,1.791.961A2.3,2.3,0,0,0,8.366-4.9,2.264,2.264,0,0,0,6.094-7.35,2.028,2.028,0,0,0,4.3-6.38ZM7.553-4.9A1.641,1.641,0,0,1,5.928-3.1,1.643,1.643,0,0,1,4.3-4.887,1.645,1.645,0,0,1,5.928-6.66,1.618,1.618,0,0,1,7.553-4.9ZM9.414-2.484h.795V-8.949H9.414ZM13.6-6.677a1.4,1.4,0,0,1,1.511,1.45H12.087A1.482,1.482,0,0,1,13.6-6.677Zm2.236,2.717h-.856a1.316,1.316,0,0,1-1.345.882,1.5,1.5,0,0,1-1.555-1.5H15.9a4.309,4.309,0,0,0,.026-.48,2.194,2.194,0,0,0-2.3-2.289,2.278,2.278,0,0,0-2.367,2.463,2.306,2.306,0,0,0,2.367,2.481A2.153,2.153,0,0,0,15.834-3.961ZM-13.6,10.619h.786V7.8a1.853,1.853,0,0,0-1.939-2.053A1.772,1.772,0,0,0-16.447,6.81,1.8,1.8,0,0,0-18.2,5.744a1.731,1.731,0,0,0-1.511.777v-.69h-.795v4.787h.795V7.981c0-1.031.55-1.546,1.354-1.546.786,0,1.31.5,1.31,1.476v2.708h.786V7.981c0-1.031.55-1.546,1.354-1.546.786,0,1.31.5,1.31,1.476Zm4.123-4.193a1.4,1.4,0,0,1,1.511,1.45h-3.022A1.482,1.482,0,0,1-9.477,6.426ZM-7.24,9.143H-8.1a1.316,1.316,0,0,1-1.345.882A1.5,1.5,0,0,1-11,8.522H-7.17a4.309,4.309,0,0,0,.026-.48,2.194,2.194,0,0,0-2.3-2.289,2.278,2.278,0,0,0-2.367,2.463A2.306,2.306,0,0,0-9.442,10.7,2.153,2.153,0,0,0-7.24,9.143Zm.847-.935A2.3,2.3,0,0,0-4.13,10.7a2,2,0,0,0,1.791-.97v.891h.8V5.832h-.8v.874a1.987,1.987,0,0,0-1.782-.952A2.269,2.269,0,0,0-6.393,8.208Zm4.053.009A1.638,1.638,0,0,1-3.965,10,1.639,1.639,0,0,1-5.581,8.208,1.616,1.616,0,0,1-3.965,6.443,1.64,1.64,0,0,1-2.34,8.217ZM-.016,9.309c0,.961.48,1.31,1.328,1.31h.716V9.946H1.443c-.489,0-.664-.166-.664-.638V6.487H2.028V5.832H.779V4.626H-.016V5.832h-.62v.655h.62Z" transform="translate(34.674 77.816)" fill="#636661"/>
      <g id="Group_470" data-name="Group 470" transform="translate(1.218 105.571)">
        <path id="Path_818" data-name="Path 818" d="M96.567,69.034c0,13.282-10.941,24.508-24.217,24.508A23.915,23.915,0,0,1,48.64,69.323c0-13.275,9.232-21.243,22.507-21.243S96.567,55.759,96.567,69.034Z" transform="translate(-48.64 -48.08)" fill="#e3e3e3" opacity="0.28"/>
        <g id="Group_213" data-name="Group 213" transform="translate(8.359 7.9)">
          <path id="Path_486" data-name="Path 486" d="M587.1,476.9l.325,3.132s-2.242-1.76-6.056.5a3.545,3.545,0,0,0,3.814,1.216s-1.571,1.864-1.32,3.415c0,0,1.837.766,4.062-1.964a6.257,6.257,0,0,0,4.155,2.362s.815-1.3-1.3-3.6a3.635,3.635,0,0,0,3.751-1.467,4.263,4.263,0,0,0-5.6-.312,15.319,15.319,0,0,0-.139-3.115s.289-.592-1.6-.277A.1.1,0,0,0,587.1,476.9Z" transform="translate(-571.184 -468.778)" fill="#d9ef59"/>
          <path id="Path_487" data-name="Path 487" d="M651.788,458.431a.925.925,0,0,0-.7-.764,1.148,1.148,0,0,0-.857.1,1,1,0,0,0-.542.673,1.153,1.153,0,0,0,.24.944.861.861,0,0,0,.667.294h.047a1.253,1.253,0,0,0,.844-.247A.928.928,0,0,0,651.788,458.431Zm-.35.223c-.038.442-.186.547-.613.636a.749.749,0,0,1-.417-.043.542.542,0,0,1-.354-.522.662.662,0,0,1,.169-.507.731.731,0,0,1,.546-.222.707.707,0,0,1,.51.231A.561.561,0,0,1,651.438,458.654Z" transform="translate(-626.501 -453.33)" fill="#2e4e5b"/>
          <path id="Path_488" data-name="Path 488" d="M580.219,436.434c-.009-.123-.083-.185-.225-.19s-.289-.019-.448-.036a.76.76,0,0,1-.657-.645,3.345,3.345,0,0,0-.072-.382.177.177,0,0,0-.186-.173.183.183,0,0,0-.165.2,1.253,1.253,0,0,1-.912,1.349c-.122.043-.177.109-.165.2.032.146.16.153.352.146l.087,0a.5.5,0,0,1,.152.019c.36.077.467.385.538.668.011.044.02.088.03.132a.9.9,0,0,0,.187.454.247.247,0,0,0,.175.112.121.121,0,0,0,.043-.008c.07-.027.107-.116.1-.233a1.509,1.509,0,0,1,.206-1.172.873.873,0,0,1,.693-.279C580.081,436.591,580.191,436.575,580.219,436.434Zm-1.126.145a.958.958,0,0,0-.283.417c-.006.018-.025.075-.068.081h-.008c-.034,0-.062-.034-.082-.06a1.238,1.238,0,0,0-.376-.339c-.035-.021-.057-.04-.059-.067a.094.094,0,0,1,.045-.071,1.034,1.034,0,0,0,.347-.455.077.077,0,0,1,.071-.05h.018l.014.013.074.077a1.612,1.612,0,0,0,.3.267.115.115,0,0,1,.063.084A.138.138,0,0,1,579.093,436.58Z" transform="translate(-567.957 -435.008)" fill="#2e4e5b"/>
          <g id="Group_145" data-name="Group 145" transform="translate(0 7.416)">
            <path id="Path_489" data-name="Path 489" d="M533.456,474.688l-.187-.031-.894-.149-.39-.068c-.263-.047-.536-.095-.806-.134a.349.349,0,0,0-.332.1.248.248,0,0,0-.031.251.336.336,0,0,0,.315.2c.415.063.829.129,1.267.2l.379.061-.019.012a8.892,8.892,0,0,0-3.289,3.2,11.906,11.906,0,0,0-1.691,5.653,13.931,13.931,0,0,0,1.286,6.681,11.877,11.877,0,0,0,4.091,4.925.527.527,0,0,0,.271.116.232.232,0,0,0,.2-.118.253.253,0,0,0,.051-.195.43.43,0,0,0-.211-.244,10.151,10.151,0,0,1-2.473-2.332,13.194,13.194,0,0,1-2.656-7.1,12.046,12.046,0,0,1,1.157-6.318,8.514,8.514,0,0,1,3.466-3.765L533,475.6a.462.462,0,0,1,.148-.068l-.176.867-.059.286c-.05.243-.1.494-.147.743a.342.342,0,0,0,.038.261.244.244,0,0,0,.168.1c.151.026.255-.057.308-.245l.009-.03c.008-.028.017-.057.023-.086l.079-.388q.194-.948.385-1.9a.327.327,0,0,0-.318-.455Z" transform="translate(-527.756 -474.249)" fill="#254f5b"/>
            <path id="Path_490" data-name="Path 490" d="M665.078,479.627a11.959,11.959,0,0,0-4.231-5.218c-.1-.066-.3-.2-.449,0a.258.258,0,0,0-.055.2.421.421,0,0,0,.2.242,8.477,8.477,0,0,1,1.826,1.568,13.022,13.022,0,0,1,2.864,12.317,9.107,9.107,0,0,1-3.133,4.931,6.691,6.691,0,0,1-1.236.8l.03-.153c.031-.161.06-.31.09-.459s.059-.286.089-.429c.058-.278.117-.566.171-.85.038-.2-.034-.333-.2-.365s-.268.056-.32.259l-.005.016a.259.259,0,0,0-.009.031l-.486,2.375a.351.351,0,0,0,.039.276.336.336,0,0,0,.233.133c.693.121,1.424.244,2.3.388a.826.826,0,0,0,.135.013.286.286,0,0,0,.18-.051.257.257,0,0,0,.091-.19c.025-.263-.2-.3-.34-.317-.4-.059-.8-.124-1.221-.192l-.41-.066.032-.02a8.883,8.883,0,0,0,3.284-3.2,11.913,11.913,0,0,0,1.683-5.632A13.926,13.926,0,0,0,665.078,479.627Z" transform="translate(-635.049 -474.251)" fill="#254f5b"/>
            <path id="Path_491" data-name="Path 491" d="M582.216,484.575h0a2.12,2.12,0,0,0-.374-.039,1.392,1.392,0,0,1-.513-.087,6.884,6.884,0,0,1-1.094-.6,2.847,2.847,0,0,1-1.164-1.352,3.316,3.316,0,0,1-.081-1.994,2.149,2.149,0,0,1,.987-1.5,2.191,2.191,0,0,0,.774-.921l.01-.018a.362.362,0,0,0-.121-.52,6.567,6.567,0,0,0-1.943-.966,4.18,4.18,0,0,0-3.354.267c-.085.044-.171.085-.262.127l-.071.034a.251.251,0,0,1,0-.046,10.551,10.551,0,0,0,.066-1.959c0-.157-.009-.313-.012-.469-.006-.319-.152-.484-.436-.491-.448-.01-.914-.012-1.424,0a.424.424,0,0,0-.32.121.4.4,0,0,0-.089.308c.039.524.088,1.032.143,1.51.029.249.07.495.114.755.016.094.032.191.048.289a5,5,0,0,0-1.183-.36,6.055,6.055,0,0,0-4.2.872c-.318.2-.534.382-.557.594-.021.183.09.375.4.683.041.042.062.073.062.094s-.033.057-.079.1l-.021.02a5.963,5.963,0,0,0-1.14,1.35,7.912,7.912,0,0,0-.973,3.489,8.049,8.049,0,0,0,.42,2.884,22.415,22.415,0,0,0,3.972,7.352,5.16,5.16,0,0,0,2.753,1.953,7.124,7.124,0,0,0,1.009.2,3.625,3.625,0,0,0,.384.02,4.018,4.018,0,0,0,1.846-.471,4.755,4.755,0,0,0,1.582-1.388c.358-.471.735-.974,1.074-1.5a38.893,38.893,0,0,0,3.691-6.9c.107-.276.219-.582.351-.964a.419.419,0,0,0,.025-.329C582.462,484.645,582.363,484.608,582.216,484.575Zm-3.536,6.978c-.121.184-.239.371-.357.558-.2.313-.4.637-.62.943a1.341,1.341,0,0,1-.954.537.323.323,0,0,1-.282-.1.625.625,0,0,1-.138-.526,2.813,2.813,0,0,1,1.784-1.931c.055-.013.112-.021.168-.029l.07-.01.086.014c.119.017.222.032.288.143a.342.342,0,0,1-.047.4Zm-2.823,1.128a1.189,1.189,0,0,0,.162,1.113.952.952,0,0,0,.9.331.131.131,0,0,1-.039.049c-.01.01-.021.02-.029.031a3.913,3.913,0,0,1-2.816,1.564,2.518,2.518,0,0,1-.507-.036l-.041-.006a4.72,4.72,0,0,1-2.9-1.534,18.192,18.192,0,0,1-2.4-3.415c-.04-.069-.078-.14-.117-.21-.065-.118-.133-.241-.2-.359-.032-.054-.027-.068-.027-.068s.011-.015.079-.03a1,1,0,0,0,.807-.91,2.476,2.476,0,0,0-.435-1.687,1.232,1.232,0,0,0-.822-.57,1.073,1.073,0,0,0-.167-.013,1.284,1.284,0,0,0-.757.267,11.163,11.163,0,0,1-.474-1.635,7.225,7.225,0,0,1,.966-5.229,3.528,3.528,0,0,1,1.024-1.046.217.217,0,0,1,.236-.016,4.171,4.171,0,0,0,2.239.406.364.364,0,0,1-.081.165l-.029.042a5.75,5.75,0,0,0-.826,2.758.441.441,0,0,0,.081.345.5.5,0,0,0,.372.127,4.511,4.511,0,0,0,2.661-.929,4.583,4.583,0,0,0,1.3-1.3c.1.095.2.188.294.281.236.224.48.457.7.7a5.1,5.1,0,0,0,2.858,1.467l.064.013a.61.61,0,0,1,.191.057.3.3,0,0,0,.44-.094l.009-.012v-.015a6.367,6.367,0,0,0-.035-.729,3.383,3.383,0,0,0,1.464,1.77c.2.131.413.251.617.367l.292.167a2.355,2.355,0,0,0,1.041.2,4.991,4.991,0,0,1-.241.663l-.065.157a36.4,36.4,0,0,1-2.416,4.77l-.017.029c-.028.049-.052.09-.074.094s-.052-.008-.133-.075a1.144,1.144,0,0,0-1.194-.106A3.2,3.2,0,0,0,575.858,492.681Zm-8.893-5.169a.647.647,0,0,1,.653.043,1.986,1.986,0,0,1,.588,1.4c0,.012,0,.029,0,.048a.8.8,0,0,1-.024.189c-.076.266-.192.384-.39.394-.176.01-.3-.086-.4-.31-.041-.089-.082-.178-.124-.267a6.059,6.059,0,0,1-.4-1.012C566.8,487.787,566.776,487.627,566.965,487.512Zm6.68-10.155c-.022-.164-.045-.328-.069-.491-.042-.293-.085-.6-.118-.894-.03-.27-.052-.545-.072-.811-.014-.178-.028-.357-.044-.535a.078.078,0,0,1,.007-.054.117.117,0,0,1,.073-.013l.305,0c.248,0,.5,0,.744,0a.071.071,0,0,1,.054.013c.014.014.013.05.013.085v.885a5.6,5.6,0,0,1-.037,1.155c-.019.19-.039.387-.049.582a.486.486,0,0,0,.086.335.254.254,0,0,0,.4.056,4.217,4.217,0,0,1,2.243-.818,2.969,2.969,0,0,1,.953.131,5.533,5.533,0,0,1,1.986.849c.1.074.1.1.04.192a2.74,2.74,0,0,1-3.021,1.128c-.054-.012-.109-.029-.161-.046a1.5,1.5,0,0,0-.223-.058c-.222-.035-.364.026-.423.182-.067.175.06.254.163.318l.046.03a2.572,2.572,0,0,1,.84.984,6.011,6.011,0,0,1,.637,2.185c.006.058,0,.069,0,.069s-.018,0-.067-.008A4.8,4.8,0,0,1,575.5,481.6c-.151-.159-.31-.315-.463-.466a11.482,11.482,0,0,1-.8-.841.287.287,0,0,0-.2-.116h-.019a.326.326,0,0,0-.211.092,1.1,1.1,0,0,0-.215.26,4.513,4.513,0,0,1-2.007,1.681,3.028,3.028,0,0,1-1.291.371h0c-.071,0-.112-.01-.13-.029s-.024-.062-.018-.136a5.331,5.331,0,0,1,.962-2.639,1.36,1.36,0,0,1,.162-.184c.04-.04.08-.081.116-.123l.029-.033c.1-.11.216-.246.094-.428-.134-.2-.33-.117-.474-.057a2.262,2.262,0,0,1-.855.219h0a4.11,4.11,0,0,1-2.193-.684l-.014-.01c-.141-.117-.228-.2-.225-.262s.1-.13.254-.233a5.542,5.542,0,0,1,3.691-.842,2.97,2.97,0,0,1,1.5.519.275.275,0,0,0,.331.029A.31.31,0,0,0,573.645,477.357Zm4.729,4.343a5.8,5.8,0,0,0-.825-1.816.63.63,0,0,0-.047-.058.421.421,0,0,1-.052-.068,4.864,4.864,0,0,0,1.284-.065c-.033.1-.072.2-.109.3a2.612,2.612,0,0,0-.187.648A6.936,6.936,0,0,0,578.374,481.7Z" transform="translate(-558.241 -474.032)" fill="#254f5b"/>
            <path id="Path_492" data-name="Path 492" d="M587.5,527.583a1.226,1.226,0,0,0,.515-.928c.006-.069.009-.14.011-.209,0-.032,0-.064,0-.1a2.606,2.606,0,0,0-.325-1.272h0a2.638,2.638,0,0,0-1.509-1.423,1.205,1.205,0,0,0-1.018.084,1.171,1.171,0,0,0-.531.838,2.92,2.92,0,0,0,1.026,2.682,1.883,1.883,0,0,0,.773.456,1.43,1.43,0,0,0,.407.061A1.142,1.142,0,0,0,587.5,527.583Zm-1.736-3.466a.867.867,0,0,1,.211.028,1.475,1.475,0,0,1,.5.249,2.718,2.718,0,0,1,1.023,2.02c0,.014,0,.031,0,.052a1.489,1.489,0,0,1-.026.209.721.721,0,0,1-.344.52.68.68,0,0,1-.589-.024,2.43,2.43,0,0,1-1.374-1.855,1.385,1.385,0,0,1,.029-.736A.582.582,0,0,1,585.762,524.117Z" transform="translate(-573.803 -514.165)" fill="#254f5b"/>
            <path id="Path_493" data-name="Path 493" d="M596.656,554.932l-.043-.038a.676.676,0,0,0-.6-.245,1.461,1.461,0,0,0-1.159.93,3.15,3.15,0,0,0,.248,2.98c.238.364.45.582.761.582a.973.973,0,0,0,.364-.082,1.464,1.464,0,0,0,.767-.693,3.185,3.185,0,0,0,.329-1.413,4.217,4.217,0,0,0-.171-1.136A1.762,1.762,0,0,0,596.656,554.932Zm.115,2.255a2.218,2.218,0,0,1-.248.918.855.855,0,0,1-.266.321c-.214.147-.322.2-.4.181s-.163-.127-.27-.293a2.455,2.455,0,0,1-.467-1.482,3.547,3.547,0,0,1,.177-.988.985.985,0,0,1,.4-.548.574.574,0,0,1,.316-.12.323.323,0,0,1,.068.007.548.548,0,0,1,.327.286A2.864,2.864,0,0,1,596.771,557.187Z" transform="translate(-581.891 -539.32)" fill="#254f5b"/>
            <path id="Path_494" data-name="Path 494" d="M623.323,528.54c-.008-.052-.017-.1-.023-.158a1.175,1.175,0,0,0-.036-.17l0-.018c-.1-.385-.224-.487-.7-.576a.712.712,0,0,0-.718.431,1.638,1.638,0,0,0,.163,1.76.615.615,0,0,0,.512.287h0a.665.665,0,0,0,.55-.324,1.41,1.41,0,0,0,.272-.882A1.245,1.245,0,0,0,623.323,528.54Zm-.641.861c-.057.1-.113.155-.161.155s-.1-.047-.15-.137a1.232,1.232,0,0,1-.188-.705.785.785,0,0,1,.142-.487.209.209,0,0,1,.18-.115l.029,0a.207.207,0,0,1,.188.146A1.423,1.423,0,0,1,622.682,529.4Z" transform="translate(-603.815 -517.427)" fill="#254f5b"/>
          </g>
        </g>
      </g>
      <text id="Plastic_Free" data-name="Plastic 
Free" transform="translate(185.5 75.5)" fill="#636661" stroke="#707070" stroke-width="0.2" font-size="9" font-family="Poppins-Light, Poppins" font-weight="300"><tspan x="-15.525" y="0">Plastic </tspan><tspan x="-9.446" y="13">Free</tspan></text>
      <text id="Plant-based_Friendly" data-name="Plant-based 
Friendly" transform="translate(104.457 75.5)" fill="#636661" stroke="#707070" stroke-width="0.2" font-size="9" font-family="Poppins-Light, Poppins" font-weight="300"><tspan x="-28.831" y="0">Plant-based </tspan><tspan x="-17.046" y="13">Friendly</tspan></text>
      <text id="Vegetarian_Friendly" data-name="Vegetarian 
Friendly" transform="translate(185.5 166.5)" fill="#636661" stroke="#707070" stroke-width="0.2" font-size="9" font-family="Poppins-Light, Poppins" font-weight="300"><tspan x="-26.019" y="0">Vegetarian </tspan><tspan x="-17.046" y="13">Friendly</tspan></text>
    </g>
    <text id="COVID_Conscious" data-name="COVID 
Conscious" transform="translate(198.5 363.971)" fill="#636661" stroke="#707070" stroke-width="0.2" font-size="9" font-family="Poppins-Light, Poppins" font-weight="300"><tspan x="-15.422" y="0">COVID </tspan><tspan x="-23.323" y="13">Conscious</tspan></text>
    <text id="Waste_Conscious" data-name="Waste
Conscious" transform="translate(119.268 363.971)" fill="#636661" stroke="#707070" stroke-width="0.2" font-size="9" font-family="Poppins-Light, Poppins" font-weight="300"><tspan x="-14.031" y="0">Waste</tspan><tspan x="-23.323" y="13">Conscious</tspan></text>
    <g id="Group_958" data-name="Group 958" transform="translate(5344.141 -5979.854)">
      <path id="Path_1288" data-name="Path 1288" d="M97.359,69.38c0,13.5-11.122,24.913-24.618,24.913a24.31,24.31,0,0,1-24.1-24.619c0-13.494,9.384-21.594,22.879-21.594S97.359,55.886,97.359,69.38Z" transform="translate(-5218.64 6138.774)" fill="#e3e3e3" opacity="0.28"/>
      <g id="Icons_Plant-Based_Friendly" data-name="Icons_Plant-Based Friendly" transform="translate(-5160.8 6196.534)">
        <path id="Path_1289" data-name="Path 1289" d="M20.929,77.829c-1.6,0-3.674-.836-5.785-4.023L15,73.581l.218-.161c.142-.1,3.5-2.545,6.253-1.277a4.383,4.383,0,0,1,2.509,3.686l.083.828-.568-.6.157-.19h0l-.171.169a8.036,8.036,0,0,0-1.776-1.207c.646.671,1.272,1.412,1.705,1.937l.21.261-.292.165A4.88,4.88,0,0,1,20.929,77.829Zm-5.154-4.1c2.907,4.23,5.649,3.733,6.953,3.125a16.278,16.278,0,0,0-2.939-2.93l.252-.508a18.26,18.26,0,0,1,3.233,1.717,3.665,3.665,0,0,0-2.043-2.463C19.154,71.7,16.546,73.221,15.775,73.725Z" transform="translate(-15 -63.991)" fill="#254f5b"/>
        <path id="Path_1290" data-name="Path 1290" d="M45.7,149.718c0-.121-.083-.189-.225-.189s-.288-.019-.447-.034a.758.758,0,0,1-.654-.644,3.811,3.811,0,0,0-.072-.379.178.178,0,0,0-.189-.172.189.189,0,0,0-.165.2,1.414,1.414,0,0,1-.326.991,1.4,1.4,0,0,1-.584.354c-.121.044-.176.11-.163.189.03.146.159.154.351.146h.085a.482.482,0,0,1,.152.019c.36.076.466.379.536.665.011.044.021.089.03.133a.91.91,0,0,0,.2.464.26.26,0,0,0,.176.112.16.16,0,0,0,.044,0c.068-.027.106-.116.1-.233a1.505,1.505,0,0,1,.2-1.169.872.872,0,0,1,.692-.279C45.559,149.873,45.669,149.86,45.7,149.718Zm-1.124.146a.974.974,0,0,0-.282.415c0,.019-.025.076-.068.081h0c-.032,0-.063-.032-.081-.059a1.237,1.237,0,0,0-.379-.339c-.036-.021-.059-.04-.061-.066a.1.1,0,0,1,.045-.07,1.04,1.04,0,0,0,.345-.447.076.076,0,0,1,.07-.051h.017l.015.013.074.076a1.611,1.611,0,0,0,.3.267.11.11,0,0,1,.063.083C44.636,149.8,44.6,149.837,44.573,149.864Z" transform="translate(-37.589 -126.01)" fill="#2e4e5b"/>
        <path id="Path_1291" data-name="Path 1291" d="M166.014,65.317a.919.919,0,0,0-.7-.758,1.15,1.15,0,0,0-.855.1,1,1,0,0,0-.548.667,1.152,1.152,0,0,0,.239.947.858.858,0,0,0,.665.292h.047a1.254,1.254,0,0,0,.849-.252A.929.929,0,0,0,166.014,65.317Zm-.349.224c-.038.442-.189.544-.612.633a.758.758,0,0,1-.415-.042.544.544,0,0,1-.349-.521.66.66,0,0,1,.171-.506.728.728,0,0,1,.544-.22.7.7,0,0,1,.508.229A.568.568,0,0,1,165.665,65.541Z" transform="translate(-135.675 -58.107)" fill="#2e4e5b"/>
        <path id="Path_1292" data-name="Path 1292" d="M72.692,73.692a4.264,4.264,0,0,1-2.084-.407.553.553,0,0,1-.261-.551V51.9a.578.578,0,0,1,.292-.582,5.371,5.371,0,0,1,4.019.017.782.782,0,0,1,.161.152c4.29-1.838,8.082-1.2,10.437,1.783,2.653,3.356,2.808,8.893.339,12.092-1.26,1.63-4.256,3.979-10.176,1.376l-.032-.017c-.061-.036-.172-.093-.229-.059-.472.286-.311,2.907-.235,4.169a6.511,6.511,0,0,1,0,1.973.6.6,0,0,1-.288.517A4.051,4.051,0,0,1,72.692,73.692ZM70.913,72.8A4,4,0,0,0,73,73.12c.927-.036,1.326-.233,1.378-.316l-.03-.129.063-.074a11.68,11.68,0,0,0-.044-1.738c-.152-2.463-.2-4.256.508-4.686a.739.739,0,0,1,.8.047c4.118,1.8,7.485,1.374,9.475-1.211,2.323-3.007,2.17-8.222-.334-11.391-1.313-1.66-4.358-4.063-10.043-1.488l-.544.246.148-.557a3.555,3.555,0,0,0-1.855-.315,2.892,2.892,0,0,0-1.607.316V72.8Zm7.8-8.376a3.854,3.854,0,0,1-3.411-1.99,6.313,6.313,0,0,1,0-6.119,4.239,4.239,0,0,1,7.15,0,6.321,6.321,0,0,1,0,6.092,3.883,3.883,0,0,1-3.561,2.018Zm0-9.507A3.278,3.278,0,0,0,75.789,56.6a5.752,5.752,0,0,0,0,5.539,3.621,3.621,0,0,0,6.164-.03,5.708,5.708,0,0,0,0-5.516A3.274,3.274,0,0,0,78.9,54.921h-.021Z" transform="translate(-59.854 -46.712)" fill="#254f5b"/>
        <path id="Path_1293" data-name="Path 1293" d="M72.966,32.275c-.568,9.645-5.844,10.75-8.122,10.771.263-1.673.934-5.421,1.849-7.08-.165.216-2.842,3.714-3.428,5.956a.09.09,0,0,1-.013.055,6.551,6.551,0,0,1,.476-6.653C66.4,31.542,72.966,32.275,72.966,32.275Z" transform="translate(-53.549 -31.927)" fill="#fff"/>
        <path id="Path_1294" data-name="Path 1294" d="M76.376,35.077c-.578,9.645-5.846,10.752-8.129,10.773.265-1.673.934-5.423,1.851-7.085-.167.214-2.842,3.712-3.43,5.954l-.011.055a6.542,6.542,0,0,1,.476-6.646C69.8,34.345,76.376,35.077,76.376,35.077Z" transform="translate(-56.308 -34.198)" fill="#d9ef59"/>
        <path id="Path_1295" data-name="Path 1295" d="M63.342,42.09l.053-.332a44.693,44.693,0,0,1,1.074-5.065,16.047,16.047,0,0,0-2.1,4.051l-.011.051-.189.8-.337-.747a6.837,6.837,0,0,1,.5-6.928c2.725-3.875,9.219-3.2,9.494-3.174l.269.028-.011.277c-.591,9.9-6.064,11.017-8.4,11.038ZM65.3,34.544l.476.311c-.845,1.533-1.484,4.94-1.764,6.651,2.3-.131,6.871-1.5,7.485-10.216-1.247-.081-6.466-.22-8.694,2.954a6.111,6.111,0,0,0-.733,5.645A27.329,27.329,0,0,1,65.3,34.544Z" transform="translate(-52.379 -30.683)" fill="#254f5b"/>
      </g>
    </g>
  </g>
</svg>
