<svg xmlns="http://www.w3.org/2000/svg" width="11.84" height="7.341" viewBox="0 0 11.84 7.341">
  <g id="scroll-arrow" transform="translate(0 12.01) rotate(-90)">
    <g id="c108_arrow" transform="translate(4.669 0)">
      <path id="Path_1332" data-name="Path 1332" d="M4.669.173v1.25l5.505,4.362a.184.184,0,0,1,0,.271L4.669,10.434v1.234a.174.174,0,0,0,.092.155.163.163,0,0,0,.175-.021L11.95,6.056a.184.184,0,0,0,0-.271L4.936.037A.161.161,0,0,0,4.761.018.17.17,0,0,0,4.669.173Z" transform="translate(-4.669 0)" fill="#858783"/>
    </g>
  </g>
</svg>
