<svg xmlns="http://www.w3.org/2000/svg" width="55" height="55" viewBox="0 0 55 55">
  <g id="Group_1054" data-name="Group 1054" transform="translate(-22 -460)">
    <g id="Rectangle_402" data-name="Rectangle 402" transform="translate(22 460)" fill="rgba(223,224,220,0.41)" stroke="#dfe0dc" stroke-width="1">
      <rect width="55" height="55" rx="4" stroke="none"/>
      <rect x="0.5" y="0.5" width="54" height="54" rx="3.5" fill="none"/>
    </g>
    <g id="photo-camera" transform="translate(38.742 479.787)">
      <g id="Group_824" data-name="Group 824" transform="translate(0 0)">
        <g id="Group_823" data-name="Group 823" transform="translate(0 0)">
          <path id="Path_1010" data-name="Path 1010" d="M18.426,50.016H16.242L15.036,48.2a2.506,2.506,0,0,0-2.07-1.092h-5A2.506,2.506,0,0,0,5.892,48.2l-1.206,1.82H2.5a2.5,2.5,0,0,0-2.5,2.5v8.826a2.5,2.5,0,0,0,2.5,2.5H18.426a2.5,2.5,0,0,0,2.5-2.5V52.518A2.5,2.5,0,0,0,18.426,50.016ZM10.464,61.8a5.63,5.63,0,1,1,5.641-5.619A5.641,5.641,0,0,1,10.464,61.8Zm7.643-8.257h-1a.74.74,0,0,1,0-1.479h.91a.738.738,0,0,1,.773.705A.72.72,0,0,1,18.107,53.542Z" transform="translate(0 -47.104)" fill="#a8aaa5"/>
        </g>
      </g>
      <g id="Group_826" data-name="Group 826" transform="translate(7.325 5.937)">
        <g id="Group_825" data-name="Group 825" transform="translate(0 0)">
          <path id="Path_1011" data-name="Path 1011" d="M168,180.736a3.128,3.128,0,1,0,3.139,3.116A3.146,3.146,0,0,0,168,180.736Z" transform="translate(-164.864 -180.736)" fill="#a8aaa5"/>
        </g>
      </g>
    </g>
  </g>
</svg>
