<svg xmlns="http://www.w3.org/2000/svg" width="26.25" height="23.387" viewBox="0 0 26.25 23.387">
  <defs>
    <style>
      .cls-1 {
        fill: #ef134a;
      }

      .cls-2 {
        fill: none;
        stroke: #424441;
        stroke-linecap: round;
        stroke-linejoin: round;
        stroke-width: 2px;
      }
    </style>
  </defs>
  <g id="Component_21_6" data-name="Component 21 – 6" transform="translate(1 1)">
    <g id="Group_395" data-name="Group 395" transform="translate(-16.541 -588.343)">
      <g id="heart_2_" data-name="heart (2)" transform="translate(18 590)">
        <path id="Path_465" data-name="Path 465" class="cls-1" d="M17.32,35.525a6.722,6.722,0,0,1,6.471,6.887c0,6.955-11.9,13.842-11.9,13.842S0,49.266,0,42.412a6.689,6.689,0,0,1,6.471-6.887h0A6.317,6.317,0,0,1,11.9,38.631,6.379,6.379,0,0,1,17.32,35.525Z" transform="translate(0 -35.525)"/>
      </g>
    </g>
    <g id="Group_394" data-name="Group 394" transform="translate(-18 -590)">
      <g id="heart_2_2" data-name="heart (2)" transform="translate(18 554.475)">
        <path id="Path_465-2" data-name="Path 465" class="cls-2" d="M15.076,35.525a5.851,5.851,0,0,1,5.633,6c0,6.054-10.354,12.049-10.354,12.049S0,47.486,0,41.52a5.822,5.822,0,0,1,5.633-6h0a5.5,5.5,0,0,1,4.722,2.7A5.552,5.552,0,0,1,15.076,35.525Z"/>
      </g>
    </g>
  </g>
</svg>
