<svg xmlns="http://www.w3.org/2000/svg" width="129.46" height="113.817" viewBox="0 0 129.46 113.817">
  <g id="Group_772" data-name="Group 772" transform="translate(-123 -208.844)">
    <path id="Union_13" data-name="Union 13" d="M2151.278-2572.26c-2.92-2.587-3.575-7.505-.873-10.321l38.911-39.973-8.467-9.3a11.289,11.289,0,0,0-8.28-3.657l-6.816-.021a14.347,14.347,0,0,1-9.376-3.791l-19.828-23.57a2.334,2.334,0,0,1,.135-3.154,2.335,2.335,0,0,1,3.3,0l17.981,17.98a2.824,2.824,0,0,0,3.993,0l3.152-3.152-20.78-20.754a1.736,1.736,0,0,1,0-2.454,1.734,1.734,0,0,1,2.453,0l20.781,20.754,2.372-2.372a2.824,2.824,0,0,0,0-3.993l-17.98-17.981a2.336,2.336,0,0,1,0-3.3,2.333,2.333,0,0,1,3.154-.135l23.57,19.827a14.347,14.347,0,0,1,3.79,9.376l.021,6.817a11.29,11.29,0,0,0,3.657,8.28l9.209,8.388,11.2-11.509a11.292,11.292,0,0,0,3.153-8.486l-.388-6.8a14.348,14.348,0,0,1,4.9-11.321l7.189-6.285a30.252,30.252,0,0,1,21.355-7.444,5.444,5.444,0,0,1,3.354,1.366,5.432,5.432,0,0,1,1.758,3.166,30.251,30.251,0,0,1-4.828,22.094l-5.378,7.891a14.352,14.352,0,0,1-10.652,6.218l-6.8.43a11.292,11.292,0,0,0-8.047,4.147l-10.158,12.6,43.658,39.766c2.865,2.648,2.507,7.6-.252,10.355s-7.707,3.118-10.355.252l-39.077-42.9-34.357,42.6a6.574,6.574,0,0,1-5.167,2.29A7.887,7.887,0,0,1,2151.278-2572.26Z" transform="translate(-2006 2892)" fill="none" stroke="#447682" stroke-width="2"/>
    <path id="Shape" d="M62.454,44.463a28.474,28.474,0,0,1-.456,5C60.14,59.9,52.269,73.938,31.257,80.677,10.245,73.938,2.374,59.9.516,49.463a28.474,28.474,0,0,1-.456-5C.06,34.093,6.411,25.09,15.65,25.09a21.15,21.15,0,0,1,15.607,6.959,21.091,21.091,0,0,1,15.59-6.959c9.239,0,15.607,9,15.607,19.373Z" transform="translate(155.011 216.323)" fill="#fff"/>
    <g id="Group_765" data-name="Group 765" transform="translate(25 -128)">
      <path id="Shape-2" data-name="Shape" d="M62.454,44.463a28.474,28.474,0,0,1-.456,5C60.14,59.9,52.269,73.938,31.257,80.677,10.245,73.938,2.374,59.9.516,49.463a28.474,28.474,0,0,1-.456-5C.06,34.093,6.411,25.09,15.65,25.09a21.15,21.15,0,0,1,15.607,6.959,21.091,21.091,0,0,1,15.59-6.959c9.239,0,15.607,9,15.607,19.373Z" transform="translate(135.011 347.323)" fill="#b1cc3e"/>
      <path id="Shape-3" data-name="Shape" d="M62.454,44.463a28.474,28.474,0,0,1-.456,5A49.368,49.368,0,0,1,43.621,62.874a30.325,30.325,0,0,1-24.728,0A49.368,49.368,0,0,1,.516,49.463a28.474,28.474,0,0,1-.456-5C.06,34.093,6.411,25.09,15.65,25.09a21.15,21.15,0,0,1,15.607,6.959,21.091,21.091,0,0,1,15.59-6.959c9.239,0,15.607,9,15.607,19.373Z" transform="translate(135.011 347.323)" fill="#d9ef59"/>
      <ellipse id="Oval" cx="8.285" cy="6.317" rx="8.285" ry="6.317" transform="translate(138.885 379.112) rotate(-19.939)" fill="#fff"/>
    </g>
    <path id="Path_437" data-name="Path 437" d="M868.477,206.982a3.6,3.6,0,0,0-2.736-2.976,4.468,4.468,0,0,0-3.337.394,3.9,3.9,0,0,0-2.111,2.624,4.483,4.483,0,0,0,.935,3.675,3.35,3.35,0,0,0,2.6,1.144c.064,0,.128,0,.184,0a4.879,4.879,0,0,0,3.286-.96A3.616,3.616,0,0,0,868.477,206.982Zm-1.362.869c-.148,1.722-.726,2.129-2.389,2.477a2.918,2.918,0,0,1-1.624-.169,2.111,2.111,0,0,1-1.381-2.031,2.58,2.58,0,0,1,.662-1.976,2.843,2.843,0,0,1,2.124-.864,2.753,2.753,0,0,1,1.984.9A2.192,2.192,0,0,1,867.115,207.851Z" transform="matrix(0.966, 0.259, -0.259, 0.966, -533.814, -183.138)" fill="#254f5b"/>
    <path id="Path_438" data-name="Path 438" d="M896.837,228.589c-.035-.452-.306-.681-.828-.7s-1.062-.07-1.643-.133a2.79,2.79,0,0,1-2.414-2.369,12.268,12.268,0,0,0-.263-1.4.651.651,0,0,0-.683-.636.67.67,0,0,0-.605.748,4.6,4.6,0,0,1-3.347,4.954c-.447.158-.65.4-.6.725.117.539.586.562,1.29.538.109,0,.215-.008.319-.008a1.821,1.821,0,0,1,.558.069c1.323.281,1.715,1.414,1.977,2.454.039.16.073.322.108.485a3.3,3.3,0,0,0,.687,1.665.9.9,0,0,0,.643.412.448.448,0,0,0,.161-.029c.254-.1.393-.426.363-.857-.2-1.321-.23-3.152.758-4.305a3.207,3.207,0,0,1,2.546-1.026C896.33,229.162,896.734,229.106,896.837,228.589Zm-4.134.534a3.526,3.526,0,0,0-1.04,1.531c-.022.069-.092.277-.249.3l-.027,0c-.124,0-.23-.124-.3-.221a4.58,4.58,0,0,0-1.381-1.245c-.13-.077-.211-.146-.218-.247a.345.345,0,0,1,.165-.259,3.792,3.792,0,0,0,1.275-1.669.284.284,0,0,1,.259-.184h.066l.052.047c.092.092.184.187.274.282a5.9,5.9,0,0,0,1.113.98.43.43,0,0,1,.23.31A.507.507,0,0,1,892.7,229.123Z" transform="translate(-763.442 79.494)" fill="#254f5b"/>
    <path id="Shape-4" data-name="Shape" d="M62.454,44.463a28.474,28.474,0,0,1-.456,5C60.14,59.9,52.269,73.938,31.257,80.677,10.245,73.938,2.374,59.9.516,49.463a28.474,28.474,0,0,1-.456-5C.06,34.093,6.411,25.09,15.65,25.09a21.15,21.15,0,0,1,15.607,6.959,21.091,21.091,0,0,1,15.59-6.959c9.239,0,15.607,9,15.607,19.373Z" transform="translate(155.011 216.323)" fill="none" stroke="#447682" stroke-width="2"/>
  </g>
</svg>
