<svg xmlns="http://www.w3.org/2000/svg" width="122.776" height="108.128" viewBox="0 0 122.776 108.128">
  <g id="Group_1133" data-name="Group 1133" transform="translate(-130.936 -221.968)">
    <path id="Path_437" data-name="Path 437" d="M868.477,206.982a3.6,3.6,0,0,0-2.736-2.976,4.468,4.468,0,0,0-3.337.394,3.9,3.9,0,0,0-2.111,2.624,4.483,4.483,0,0,0,.935,3.675,3.35,3.35,0,0,0,2.6,1.144c.064,0,.128,0,.184,0a4.879,4.879,0,0,0,3.286-.96A3.616,3.616,0,0,0,868.477,206.982Zm-1.362.869c-.148,1.722-.726,2.129-2.389,2.477a2.918,2.918,0,0,1-1.624-.169,2.111,2.111,0,0,1-1.381-2.031,2.58,2.58,0,0,1,.662-1.976,2.843,2.843,0,0,1,2.124-.864,2.753,2.753,0,0,1,1.984.9A2.192,2.192,0,0,1,867.115,207.851Z" transform="matrix(0.966, 0.259, -0.259, 0.966, -551.274, -190.139)" fill="#254f5b"/>
    <path id="Path_438" data-name="Path 438" d="M896.837,228.589c-.035-.452-.306-.681-.828-.7s-1.062-.07-1.643-.133a2.79,2.79,0,0,1-2.414-2.369,12.268,12.268,0,0,0-.263-1.4.651.651,0,0,0-.683-.636.67.67,0,0,0-.605.748,4.6,4.6,0,0,1-3.347,4.954c-.447.158-.65.4-.6.725.117.539.586.562,1.29.538.109,0,.215-.008.319-.008a1.821,1.821,0,0,1,.558.069c1.323.281,1.715,1.414,1.977,2.454.039.16.073.322.108.485a3.3,3.3,0,0,0,.687,1.665.9.9,0,0,0,.643.412.448.448,0,0,0,.161-.029c.254-.1.393-.426.363-.857-.2-1.321-.23-3.152.758-4.305a3.207,3.207,0,0,1,2.546-1.026C896.33,229.162,896.734,229.106,896.837,228.589Zm-4.134.534a3.526,3.526,0,0,0-1.04,1.531c-.022.069-.092.277-.249.3l-.027,0c-.124,0-.23-.124-.3-.221a4.58,4.58,0,0,0-1.381-1.245c-.13-.077-.211-.146-.218-.247a.345.345,0,0,1,.165-.259,3.792,3.792,0,0,0,1.275-1.669.284.284,0,0,1,.259-.184h.066l.052.047c.092.092.184.187.274.282a5.9,5.9,0,0,0,1.113.98.43.43,0,0,1,.23.31A.507.507,0,0,1,892.7,229.123Z" transform="translate(-755.506 82.494)" fill="#254f5b"/>
    <g id="Group_1117" data-name="Group 1117" transform="translate(-62 126)">
      <g id="thumb-up_1_" data-name="thumb-up (1)" transform="translate(201.124 101)">
        <g id="Group_1112" data-name="Group 1112" transform="translate(18.376 0)">
          <g id="Group_1111" data-name="Group 1111" transform="translate(0 0)">
            <path id="Path_1454" data-name="Path 1454" d="M159.686,65.762H160.9a7.713,7.713,0,0,0,7.711-7.871,7.812,7.812,0,0,0-7.864-7.555H138.825a4.285,4.285,0,0,1-1.534-.279,17.064,17.064,0,0,0-6.094-1.042h-1.362a4.275,4.275,0,0,1-3.708-6.4,55.9,55.9,0,0,0,6.144-15.988l1.115-5.154c1.161-3.8.868-6.861-.42-9.2l-4.205-1.057a8.178,8.178,0,0,0-2.644,4.618l-.893,4.228a55.894,55.894,0,0,1-6.281,16.393l-5.762,9.981A17.069,17.069,0,0,1,98.4,54.97v51.7h10a26.638,26.638,0,0,1,11.654,2.684,26.637,26.637,0,0,0,11.654,2.684h22.355v-.271a7.713,7.713,0,0,0,0-14.884v-.271h2.24a7.713,7.713,0,0,0,0-15.426h3.387a7.713,7.713,0,1,0,0-15.426Z" transform="translate(-82.198 -8.945)" fill="#d9ef59"/>
            <g id="Group_1109" data-name="Group 1109" transform="translate(40.646)">
              <path id="Path_1455" data-name="Path 1455" d="M227.708,10.478,225.864,19a55.9,55.9,0,0,1-6.144,15.988,4.275,4.275,0,0,0,3.708,6.4h11.7a4.275,4.275,0,0,1-3.708-6.4A55.9,55.9,0,0,0,237.565,19l1.844-8.523A8.68,8.68,0,0,0,225.065,2.27a8.676,8.676,0,0,1,2.643,8.207Z" transform="translate(-219.147 0)" fill="#b1cc3e"/>
              <path id="Path_1456" data-name="Path 1456" d="M381.237,219.876h1.219A7.713,7.713,0,0,0,390.167,212a7.812,7.812,0,0,0-7.864-7.555H370.594a7.818,7.818,0,0,1,7.871,7.5,7.713,7.713,0,0,1-7.71,7.93h-1.219a7.713,7.713,0,1,1,0,15.426h-3.387a7.713,7.713,0,1,1,0,15.426h-2.24V251a7.713,7.713,0,0,1,0,14.884v.271h11.7v-.271a7.713,7.713,0,0,0,.26-14.809.365.365,0,0,1-.26-.347h2.241a7.713,7.713,0,0,0,0-15.426h3.387a7.713,7.713,0,0,0,0-15.426Z" transform="translate(-334.602 -163.06)" fill="#b1cc3e"/>
            </g>
            <path id="Union_18" data-name="Union 18" d="M-14688.487-9405.993a5.012,5.012,0,0,1-5.012-5.012v-53.982a5.012,5.012,0,0,1,5.012-5.012h12.136a5.01,5.01,0,0,1,5.012,5.012V-9411a5.01,5.01,0,0,1-5.012,5.012Z" transform="translate(14686.542 9505.646)" fill="none" stroke="#447682" stroke-width="2"/>
          </g>
        </g>
        <g id="Group_1116" data-name="Group 1116" transform="translate(83.733 55.252)">
          <g id="Group_1113" data-name="Group 1113">
            <path id="Path_1459" data-name="Path 1459" d="M363.133,276.05h-20.36a1.564,1.564,0,1,1,0-3.128h20.36a1.564,1.564,0,0,1,0,3.128Z" transform="translate(-341.209 -272.922)" fill="#b1cc3e"/>
          </g>
          <g id="Group_1114" data-name="Group 1114" transform="translate(0 15.426)">
            <path id="Path_1460" data-name="Path 1460" d="M356.911,352.248H342.773a1.564,1.564,0,0,1,0-3.128h14.138a1.564,1.564,0,1,1,0,3.128Z" transform="translate(-341.209 -349.12)" fill="#b1cc3e"/>
          </g>
          <g id="Group_1115" data-name="Group 1115" transform="translate(2.152 30.852)">
            <path id="Path_1461" data-name="Path 1461" d="M363.148,428.447h-9.743a1.564,1.564,0,1,1,0-3.128h9.743a1.564,1.564,0,1,1,0,3.128Z" transform="translate(-351.841 -425.319)" fill="#b1cc3e"/>
          </g>
        </g>
      </g>
      <path id="Union_17" data-name="Union 17" d="M-14468.988-9265.348a5.011,5.011,0,0,1-5.013-5.01v-53.986a5.014,5.014,0,0,1,5.013-5.013h12.136a5.013,5.013,0,0,1,5.013,5.013v.295a17.084,17.084,0,0,0,8.824-7.461l5.761-9.982a55.818,55.818,0,0,0,6.28-16.39l.894-4.229a8.181,8.181,0,0,1,2.645-4.62,8.668,8.668,0,0,1,7.643-2.082,8.683,8.683,0,0,1,6.7,10.291l-1.845,8.521a55.944,55.944,0,0,1-6.143,15.987,4.282,4.282,0,0,0,2.157,6.117c.008,0,.011.007.019.007a1.03,1.03,0,0,0,.127.047s.007,0,.011,0l.025.011a.033.033,0,0,1,.021.008c.008,0,.012,0,.015,0a4.435,4.435,0,0,0,.948.189s.008,0,.008,0h.043a.279.279,0,0,0,.051,0h.019a.042.042,0,0,0,.021,0h.022c.011,0,.018,0,.025,0h.043a.167.167,0,0,1,.044,0h31.828a7.812,7.812,0,0,1,7.864,7.555,7.718,7.718,0,0,1-7.367,7.864v.008a1.4,1.4,0,0,1-.008.157,7.714,7.714,0,0,1,6.158,7.555,7.713,7.713,0,0,1-7.716,7.712h-3.386a7.714,7.714,0,0,1,7.712,7.715,7.714,7.714,0,0,1-7.712,7.712h-2.241a.363.363,0,0,0,.258.346,7.715,7.715,0,0,1,5.428,7.366,7.715,7.715,0,0,1-5.686,7.443v.272h-32.147a26.638,26.638,0,0,1-11.653-2.685,26.606,26.606,0,0,0-11.656-2.685h-4.036v.915a5.01,5.01,0,0,1-5.013,5.01Z" transform="translate(14686.605 9466)" fill="none" stroke="#447682" stroke-width="2"/>
    </g>
  </g>
</svg>
